<?xml version="1.0" encoding="UTF-8" standalone="no"?><!-- Generator: Gravit.io --><svg xmlns="http://www.w3.org/2000/svg" xmlns:xlink="http://www.w3.org/1999/xlink" style="isolation:isolate" viewBox="0 0 65 65" width="65pt" height="65pt"><defs><clipPath id="_clipPath_umX9kN3kMaDS1yOo4pq89fZCqFByRW5f"><rect width="65" height="65"/></clipPath></defs><g clip-path="url(#_clipPath_umX9kN3kMaDS1yOo4pq89fZCqFByRW5f)"><polygon points="61.416,48.02,31.975,64,2.56,47.98,2.584,15.98,32.025,0,61.44,16.02" fill="rgb(244,10,10)"/><polygon points="15.241,57.76,0,31.262,16.759,4.996,48.759,5.228,64,31.727,47.241,57.992" fill="rgb(255,255,255)"/><path d=" M 17.717 41.412 C 19.969 41.412 21.8 39.553 21.8 37.267 C 21.8 34.98 19.969 33.121 17.717 33.121 C 15.465 33.121 13.634 34.98 13.634 37.267 C 13.634 39.553 15.465 41.412 17.717 41.412 Z  M 46.297 41.412 C 48.548 41.412 50.379 39.553 50.379 37.267 C 50.379 34.98 48.548 33.121 46.297 33.121 C 44.045 33.121 42.214 34.98 42.214 37.267 C 42.214 39.553 44.045 41.412 46.297 41.412 Z  M 48.338 43.484 L 44.255 43.484 C 43.132 43.484 42.118 43.944 41.378 44.689 C 43.949 46.12 45.773 48.705 46.169 51.775 L 50.379 51.775 C 51.508 51.775 52.421 50.849 52.421 49.702 L 52.421 47.63 C 52.421 45.343 50.59 43.484 48.338 43.484 Z  M 32.007 43.484 C 35.956 43.484 39.152 40.239 39.152 36.23 C 39.152 32.221 35.956 28.976 32.007 28.976 C 28.058 28.976 24.862 32.221 24.862 36.23 C 24.862 40.239 28.058 43.484 32.007 43.484 Z  M 36.906 45.557 L 36.377 45.557 C 35.05 46.205 33.576 46.593 32.007 46.593 C 30.437 46.593 28.97 46.205 27.637 45.557 L 27.107 45.557 C 23.05 45.557 19.758 48.899 19.758 53.018 L 19.758 54.884 C 19.758 56.6 21.13 57.992 22.821 57.992 L 41.193 57.992 C 42.884 57.992 44.255 56.6 44.255 54.884 L 44.255 53.018 C 44.255 48.899 40.963 45.557 36.906 45.557 Z  M 22.636 44.689 C 21.896 43.944 20.881 43.484 19.758 43.484 L 15.676 43.484 C 13.424 43.484 11.593 45.343 11.593 47.63 L 11.593 49.702 C 11.593 50.849 12.505 51.775 13.634 51.775 L 17.838 51.775 C 18.24 48.705 20.065 46.12 22.636 44.689 Z " fill="rgb(255,0,0)"/><path d=" M 27.548 16.059 C 27.495 16.008 27.422 15.98 27.347 15.98 C 27.271 15.98 27.198 16.008 27.145 16.059 L 25.635 17.472 L 25.097 16.978 C 25.044 16.928 24.971 16.9 24.896 16.9 C 24.82 16.9 24.748 16.928 24.694 16.978 L 24.322 17.329 C 24.268 17.38 24.238 17.448 24.238 17.519 C 24.238 17.59 24.268 17.659 24.322 17.709 L 25.45 18.767 C 25.567 18.872 25.751 18.872 25.868 18.767 L 26.237 18.418 L 27.949 16.807 C 28.06 16.702 28.061 16.533 27.951 16.427 L 27.548 16.059 Z  M 27.548 19.613 C 27.495 19.562 27.422 19.534 27.347 19.534 C 27.271 19.534 27.198 19.562 27.145 19.613 L 25.635 21.035 L 25.097 20.542 C 25.044 20.492 24.971 20.463 24.896 20.463 C 24.82 20.463 24.748 20.492 24.694 20.542 L 24.322 20.892 C 24.268 20.943 24.238 21.011 24.238 21.082 C 24.238 21.153 24.268 21.222 24.322 21.272 L 25.447 22.332 C 25.564 22.437 25.748 22.437 25.865 22.332 L 26.237 21.982 L 27.949 20.37 C 28.059 20.266 28.06 20.097 27.951 19.992 L 27.548 19.613 Z  M 25.756 23.482 C 25.128 23.482 24.604 23.962 24.604 24.554 C 24.604 25.145 25.128 25.625 25.756 25.625 C 26.384 25.625 26.894 25.146 26.894 24.554 C 26.894 23.962 26.384 23.482 25.756 23.482 Z  M 35.997 23.839 L 29.169 23.839 C 28.96 23.839 28.79 23.999 28.79 24.197 L 28.79 24.911 C 28.79 25.108 28.96 25.268 29.169 25.268 L 35.997 25.268 C 36.207 25.268 36.377 25.108 36.377 24.911 L 36.377 24.197 C 36.377 23.999 36.207 23.839 35.997 23.839 Z  M 35.997 16.695 L 29.169 16.695 C 28.96 16.695 28.79 16.855 28.79 17.052 L 28.79 17.767 C 28.79 17.964 28.96 18.124 29.169 18.124 L 35.997 18.124 C 36.207 18.124 36.377 17.964 36.377 17.767 L 36.377 17.052 C 36.377 16.855 36.207 16.695 35.997 16.695 Z  M 35.997 20.267 L 29.169 20.267 C 28.96 20.267 28.79 20.427 28.79 20.624 L 28.79 21.339 C 28.79 21.536 28.96 21.696 29.169 21.696 L 35.997 21.696 C 36.207 21.696 36.377 21.536 36.377 21.339 L 36.377 20.624 C 36.377 20.427 36.207 20.267 35.997 20.267 Z " fill="rgb(255,0,0)"/></g></svg>