<?xml version="1.0" encoding="UTF-8" standalone="no"?><!-- Generator: Gravit.io --><svg xmlns="http://www.w3.org/2000/svg" xmlns:xlink="http://www.w3.org/1999/xlink" style="isolation:isolate" viewBox="0 0 190 234" width="190pt" height="234pt"><defs><clipPath id="_clipPath_TYmVjnVfX5dugzwY265znvKnuBS1ISJu"><rect width="190" height="234"/></clipPath></defs><g clip-path="url(#_clipPath_TYmVjnVfX5dugzwY265znvKnuBS1ISJu)"><text transform="matrix(1,0,0,1,37.419,231.031)" style="font-family:'Open Sans';font-weight:700;font-size:40px;font-style:normal;fill:#5e5e5e;stroke:none;">SMUH</text><polygon points="178,143.88,94.931,191.76,11.931,143.76,12,47.88,95.069,0,178.069,48" fill="rgb(244,10,10)"/><polygon points="47.713,173.064,4.709,93.668,51.996,14.969,142.287,15.666,185.291,95.061,138.004,173.76" fill="rgb(255,255,255)"/><path d=" M 54.699 124.08 C 61.053 124.08 66.219 118.511 66.219 111.66 C 66.219 104.81 61.053 99.24 54.699 99.24 C 48.345 99.24 43.179 104.81 43.179 111.66 C 43.179 118.511 48.345 124.08 54.699 124.08 Z  M 135.339 124.08 C 141.693 124.08 146.859 118.511 146.859 111.66 C 146.859 104.81 141.693 99.24 135.339 99.24 C 128.985 99.24 123.819 104.81 123.819 111.66 C 123.819 118.511 128.985 124.08 135.339 124.08 Z  M 141.099 130.29 L 129.579 130.29 C 126.411 130.29 123.549 131.668 121.461 133.9 C 128.715 138.189 133.863 145.932 134.979 155.13 L 146.859 155.13 C 150.045 155.13 152.619 152.355 152.619 148.92 L 152.619 142.71 C 152.619 135.86 147.453 130.29 141.099 130.29 Z  M 95.019 130.29 C 106.161 130.29 115.179 120.568 115.179 108.555 C 115.179 96.543 106.161 86.82 95.019 86.82 C 83.877 86.82 74.859 96.543 74.859 108.555 C 74.859 120.568 83.877 130.29 95.019 130.29 Z  M 108.843 136.5 L 107.349 136.5 C 103.605 138.441 99.447 139.605 95.019 139.605 C 90.591 139.605 86.451 138.441 82.689 136.5 L 81.195 136.5 C 69.747 136.5 60.459 146.514 60.459 158.856 L 60.459 164.445 C 60.459 169.588 64.329 173.76 69.099 173.76 L 120.939 173.76 C 125.709 173.76 129.579 169.588 129.579 164.445 L 129.579 158.856 C 129.579 146.514 120.291 136.5 108.843 136.5 Z  M 68.577 133.9 C 66.489 131.668 63.627 130.29 60.459 130.29 L 48.939 130.29 C 42.585 130.29 37.419 135.86 37.419 142.71 L 37.419 148.92 C 37.419 152.355 39.993 155.13 43.179 155.13 L 55.041 155.13 C 56.175 145.932 61.323 138.189 68.577 133.9 Z " fill="rgb(255,0,0)"/><path d=" M 82.439 48.116 C 82.288 47.965 82.083 47.88 81.87 47.88 C 81.657 47.88 81.452 47.965 81.301 48.116 L 77.042 52.351 L 75.523 50.872 C 75.372 50.72 75.168 50.635 74.954 50.635 C 74.741 50.635 74.536 50.72 74.386 50.872 L 73.336 51.923 C 73.184 52.074 73.099 52.278 73.099 52.492 C 73.099 52.705 73.184 52.91 73.336 53.06 L 76.519 56.231 C 76.849 56.545 77.367 56.545 77.697 56.231 L 78.74 55.186 L 83.57 50.357 C 83.883 50.044 83.886 49.537 83.576 49.22 L 82.439 48.116 Z  M 82.439 58.765 C 82.288 58.614 82.083 58.529 81.87 58.529 C 81.657 58.529 81.452 58.614 81.301 58.765 L 77.042 63.028 L 75.523 61.549 C 75.372 61.398 75.168 61.313 74.954 61.313 C 74.741 61.313 74.536 61.398 74.386 61.549 L 73.336 62.599 C 73.184 62.749 73.099 62.954 73.099 63.167 C 73.099 63.381 73.184 63.585 73.336 63.736 L 76.511 66.913 C 76.841 67.227 77.359 67.227 77.688 66.913 L 78.739 65.864 L 83.568 61.033 C 83.88 60.722 83.883 60.217 83.574 59.902 L 82.439 58.765 Z  M 77.381 70.358 C 75.609 70.358 74.13 71.797 74.13 73.569 C 74.13 75.342 75.61 76.78 77.381 76.78 C 79.154 76.78 80.592 75.343 80.592 73.569 C 80.592 71.796 79.154 70.358 77.381 70.358 Z  M 106.279 71.429 L 87.013 71.429 C 86.422 71.429 85.943 71.908 85.943 72.499 L 85.943 74.64 C 85.943 75.231 86.422 75.71 87.013 75.71 L 106.279 75.71 C 106.87 75.71 107.349 75.231 107.349 74.64 L 107.349 72.499 C 107.349 71.908 106.87 71.429 106.279 71.429 Z  M 106.279 50.023 L 87.013 50.023 C 86.422 50.023 85.943 50.502 85.943 51.093 L 85.943 53.234 C 85.943 53.825 86.422 54.304 87.013 54.304 L 106.279 54.304 C 106.87 54.304 107.349 53.825 107.349 53.234 L 107.349 51.093 C 107.349 50.502 106.87 50.023 106.279 50.023 Z  M 106.279 60.726 L 87.013 60.726 C 86.422 60.726 85.943 61.205 85.943 61.796 L 85.943 63.937 C 85.943 64.528 86.422 65.007 87.013 65.007 L 106.279 65.007 C 106.87 65.007 107.349 64.528 107.349 63.937 L 107.349 61.796 C 107.349 61.205 106.87 60.726 106.279 60.726 Z " fill="rgb(255,0,0)"/></g></svg>