<?xml version="1.0" encoding="UTF-8" standalone="no"?><!-- Generator: Gravit.io --><svg xmlns="http://www.w3.org/2000/svg" xmlns:xlink="http://www.w3.org/1999/xlink" style="isolation:isolate" viewBox="0 0 1913 1000" width="1913pt" height="1000pt"><defs><clipPath id="_clipPath_Lvphd2LftzqhVCsxSsNDKDdC5wPyENdr"><rect width="1913" height="1000"/></clipPath></defs><g clip-path="url(#_clipPath_Lvphd2LftzqhVCsxSsNDKDdC5wPyENdr)"><path d="M 0 961 L 1195 961 L 1195 1000 L 17 1000 C 7.617 1000 0 995.071 0 989 L 0 961 Z" style="stroke:none;fill:#8A8A8A;stroke-miterlimit:10;"/><path d="M 0 961 L 1195 961 L 1195 1000 L 17 1000 C 7.617 1000 0 995.071 0 989 L 0 961 Z" style="fill:none;stroke:#EBEBEB;stroke-width:1;stroke-linecap:square;stroke-miterlimit:2;"/><path d="M 105 260 L 1184 260 C 1190.071 260 1195 264.929 1195 271 L 1195 961 L 94 961 L 94 271 C 94 264.929 98.929 260 105 260 Z" style="stroke:none;fill:#8A8A8A;stroke-linecap:square;stroke-miterlimit:2;"/><clipPath id="_clipPath_6dCGKRxn2i3nSjEwplRM66CfmzP35ny7"><rect x="146" y="296.333" width="997" height="664.667" transform="matrix(1,0,0,1,0,0)" fill="rgb(255,255,255)"/></clipPath><g clip-path="url(#_clipPath_6dCGKRxn2i3nSjEwplRM66CfmzP35ny7)"><g><rect x="111.437" y="280.381" width="1033.087" height="682.448" transform="matrix(1,0,0,1,0,0)" fill="rgb(8,8,8)"/><text transform="matrix(1.182,0,0,1.182,639.984,498.022)" style="font-family:'Open Sans';font-weight:700;font-size:26px;font-style:normal;font-variant-ligatures:none;fill:#B3B3B3;stroke:none;">SM</text><text transform="matrix(1.182,0,0,1.182,685.903,498.022)" style="font-family:'Open Sans';font-weight:700;font-size:26px;font-style:normal;font-variant-ligatures:none;fill:#D90101;stroke:none;">UH</text><path d=" M 610.991 501.486 L 582.707 516.838 L 554.447 501.448 L 554.471 470.705 L 582.754 455.353 L 611.015 470.743 L 610.991 501.486 Z " fill="rgb(244,10,10)"/><path d=" M 566.63 510.844 L 551.988 485.386 L 568.089 460.152 L 598.831 460.376 L 613.473 485.833 L 597.373 511.067 L 566.63 510.844 Z " fill="rgb(255,255,255)"/><path d=" M 569.009 495.138 C 571.173 495.138 572.931 493.352 572.931 491.155 C 572.931 488.959 571.173 487.173 569.009 487.173 C 566.846 487.173 565.087 488.959 565.087 491.155 C 565.087 493.352 566.846 495.138 569.009 495.138 Z  M 596.466 495.138 C 598.629 495.138 600.388 493.352 600.388 491.155 C 600.388 488.959 598.629 487.173 596.466 487.173 C 594.302 487.173 592.543 488.959 592.543 491.155 C 592.543 493.352 594.302 495.138 596.466 495.138 Z  M 598.427 497.129 L 594.504 497.129 C 593.426 497.129 592.451 497.57 591.74 498.286 C 594.21 499.662 595.963 502.144 596.343 505.093 L 600.388 505.093 C 601.473 505.093 602.349 504.204 602.349 503.102 L 602.349 501.111 C 602.349 498.914 600.59 497.129 598.427 497.129 Z  M 582.737 497.129 C 586.531 497.129 589.601 494.011 589.601 490.159 C 589.601 486.308 586.531 483.19 582.737 483.19 C 578.944 483.19 575.873 486.308 575.873 490.159 C 575.873 494.011 578.944 497.129 582.737 497.129 Z  M 587.444 499.12 L 586.935 499.12 C 585.661 499.742 584.245 500.115 582.737 500.115 C 581.23 500.115 579.82 499.742 578.539 499.12 L 578.031 499.12 C 574.132 499.12 570.97 502.331 570.97 506.288 L 570.97 508.08 C 570.97 509.729 572.288 511.067 573.912 511.067 L 591.563 511.067 C 593.187 511.067 594.504 509.729 594.504 508.08 L 594.504 506.288 C 594.504 502.331 591.342 499.12 587.444 499.12 Z  M 573.734 498.286 C 573.023 497.57 572.049 497.129 570.97 497.129 L 567.048 497.129 C 564.884 497.129 563.126 498.914 563.126 501.111 L 563.126 503.102 C 563.126 504.204 564.002 505.093 565.087 505.093 L 569.125 505.093 C 569.512 502.144 571.264 499.662 573.734 498.286 Z " fill="rgb(255,0,0)"/><path d=" M 578.454 470.781 C 578.402 470.733 578.333 470.705 578.26 470.705 C 578.188 470.705 578.118 470.733 578.067 470.781 L 576.616 472.139 L 576.099 471.664 C 576.048 471.616 575.978 471.589 575.906 471.589 C 575.833 471.589 575.763 471.616 575.712 471.664 L 575.355 472.001 C 575.303 472.05 575.274 472.115 575.274 472.184 C 575.274 472.252 575.303 472.318 575.355 472.366 L 576.438 473.383 C 576.55 473.484 576.727 473.484 576.84 473.383 L 577.195 473.048 L 578.839 471.5 C 578.946 471.399 578.947 471.236 578.841 471.135 L 578.454 470.781 Z  M 578.454 474.195 C 578.402 474.147 578.333 474.12 578.26 474.12 C 578.188 474.12 578.118 474.147 578.067 474.195 L 576.616 475.562 L 576.099 475.088 C 576.048 475.04 575.978 475.012 575.906 475.012 C 575.833 475.012 575.763 475.04 575.712 475.088 L 575.355 475.424 C 575.303 475.473 575.274 475.538 575.274 475.607 C 575.274 475.675 575.303 475.741 575.355 475.789 L 576.435 476.808 C 576.548 476.909 576.724 476.909 576.836 476.808 L 577.194 476.471 L 578.838 474.923 C 578.945 474.822 578.946 474.661 578.84 474.56 L 578.454 474.195 Z  M 576.732 477.912 C 576.128 477.912 575.625 478.374 575.625 478.942 C 575.625 479.51 576.129 479.971 576.732 479.971 C 577.335 479.971 577.825 479.511 577.825 478.942 C 577.825 478.374 577.335 477.912 576.732 477.912 Z  M 586.571 478.256 L 580.011 478.256 C 579.81 478.256 579.647 478.409 579.647 478.599 L 579.647 479.285 C 579.647 479.475 579.81 479.628 580.011 479.628 L 586.571 479.628 C 586.772 479.628 586.935 479.475 586.935 479.285 L 586.935 478.599 C 586.935 478.409 586.772 478.256 586.571 478.256 Z  M 586.571 471.392 L 580.011 471.392 C 579.81 471.392 579.647 471.545 579.647 471.736 L 579.647 472.421 C 579.647 472.611 579.81 472.765 580.011 472.765 L 586.571 472.765 C 586.772 472.765 586.935 472.611 586.935 472.421 L 586.935 471.736 C 586.935 471.545 586.772 471.392 586.571 471.392 Z  M 586.571 474.824 L 580.011 474.824 C 579.81 474.824 579.647 474.978 579.647 475.167 L 579.647 475.853 C 579.647 476.043 579.81 476.197 580.011 476.197 L 586.571 476.197 C 586.772 476.197 586.935 476.043 586.935 475.853 L 586.935 475.167 C 586.935 474.978 586.772 474.824 586.571 474.824 Z " fill="rgb(255,0,0)"/><g style="opacity:0.3;" filter="url(#8b6fWJl6jvbeoyh5ilJAxs5ByuCUQUI3)"><g opacity="0.3"><path d=" M 499.175 565.359 L 780.794 565.359 C 781.949 565.359 782.888 566.297 782.888 567.453 L 782.888 609.792 C 782.888 610.947 781.949 611.886 780.794 611.886 L 499.175 611.886 C 498.019 611.886 497.081 610.947 497.081 609.792 L 497.081 567.453 C 497.081 566.297 498.019 565.359 499.175 565.359 Z " fill="rgb(235,235,235)"/></g><g opacity="0.3"><mask id="_mask_ZEU1dm976XH4RjBdDYqc8pL8r2hkKUmx" x="-200%" y="-200%" width="400%" height="400%"><rect x="-200%" y="-200%" width="400%" height="400%" style="fill:white;"/><path d=" M 499.175 565.359 L 780.794 565.359 C 781.949 565.359 782.888 566.297 782.888 567.453 L 782.888 609.792 C 782.888 610.947 781.949 611.886 780.794 611.886 L 499.175 611.886 C 498.019 611.886 497.081 610.947 497.081 609.792 L 497.081 567.453 C 497.081 566.297 498.019 565.359 499.175 565.359 Z " fill="black" stroke="none"/></mask><path d=" M 499.175 565.359 L 780.794 565.359 C 781.949 565.359 782.888 566.297 782.888 567.453 L 782.888 609.792 C 782.888 610.947 781.949 611.886 780.794 611.886 L 499.175 611.886 C 498.019 611.886 497.081 610.947 497.081 609.792 L 497.081 567.453 C 497.081 566.297 498.019 565.359 499.175 565.359 Z " fill="none" mask="url(#_mask_ZEU1dm976XH4RjBdDYqc8pL8r2hkKUmx)" vector-effect="non-scaling-stroke" stroke-width="4" stroke="rgb(202,81,0)" stroke-linejoin="miter" stroke-linecap="square" stroke-miterlimit="2"/><path d=" M 499.175 565.359 L 780.794 565.359 C 781.949 565.359 782.888 566.297 782.888 567.453 L 782.888 609.792 C 782.888 610.947 781.949 611.886 780.794 611.886 L 499.175 611.886 C 498.019 611.886 497.081 610.947 497.081 609.792 L 497.081 567.453 C 497.081 566.297 498.019 565.359 499.175 565.359 Z " fill="none"/></g></g><defs><filter id="8b6fWJl6jvbeoyh5ilJAxs5ByuCUQUI3" x="-200%" y="-200%" width="400%" height="400%" filterUnits="objectBoundingBox" color-interpolation-filters="sRGB"><feGaussianBlur xmlns="http://www.w3.org/2000/svg" stdDeviation="0"/></filter></defs><g style="opacity:0.3;" filter="url(#Kn7bZjxGjDzdneYUxqVnXbvGlcUp1nY2)"><g opacity="0.3"><path d=" M 499.175 630.496 L 780.794 630.496 C 781.949 630.496 782.888 631.434 782.888 632.59 L 782.888 674.929 C 782.888 676.085 781.949 677.023 780.794 677.023 L 499.175 677.023 C 498.019 677.023 497.081 676.085 497.081 674.929 L 497.081 632.59 C 497.081 631.434 498.019 630.496 499.175 630.496 Z " fill="rgb(235,235,235)"/></g><g opacity="0.3"><mask id="_mask_ZpjN7nY1IlMEa3TpteziUeP2ZD6ExAZ5" x="-200%" y="-200%" width="400%" height="400%"><rect x="-200%" y="-200%" width="400%" height="400%" style="fill:white;"/><path d=" M 499.175 630.496 L 780.794 630.496 C 781.949 630.496 782.888 631.434 782.888 632.59 L 782.888 674.929 C 782.888 676.085 781.949 677.023 780.794 677.023 L 499.175 677.023 C 498.019 677.023 497.081 676.085 497.081 674.929 L 497.081 632.59 C 497.081 631.434 498.019 630.496 499.175 630.496 Z " fill="black" stroke="none"/></mask><path d=" M 499.175 630.496 L 780.794 630.496 C 781.949 630.496 782.888 631.434 782.888 632.59 L 782.888 674.929 C 782.888 676.085 781.949 677.023 780.794 677.023 L 499.175 677.023 C 498.019 677.023 497.081 676.085 497.081 674.929 L 497.081 632.59 C 497.081 631.434 498.019 630.496 499.175 630.496 Z " fill="none" mask="url(#_mask_ZpjN7nY1IlMEa3TpteziUeP2ZD6ExAZ5)" vector-effect="non-scaling-stroke" stroke-width="4" stroke="rgb(202,81,0)" stroke-linejoin="miter" stroke-linecap="square" stroke-miterlimit="2"/><path d=" M 499.175 630.496 L 780.794 630.496 C 781.949 630.496 782.888 631.434 782.888 632.59 L 782.888 674.929 C 782.888 676.085 781.949 677.023 780.794 677.023 L 499.175 677.023 C 498.019 677.023 497.081 676.085 497.081 674.929 L 497.081 632.59 C 497.081 631.434 498.019 630.496 499.175 630.496 Z " fill="none"/></g></g><defs><filter id="Kn7bZjxGjDzdneYUxqVnXbvGlcUp1nY2" x="-200%" y="-200%" width="400%" height="400%" filterUnits="objectBoundingBox" color-interpolation-filters="sRGB"><feGaussianBlur xmlns="http://www.w3.org/2000/svg" stdDeviation="0"/></filter></defs><g style="opacity:0.3;" filter="url(#VDDyjcv4wOykc8RZjbKpStVWL1qY1aoD)"><g opacity="0.3"><path d=" M 502.224 724.214 L 783.843 724.214 C 784.999 724.214 785.937 725.152 785.937 726.308 L 785.937 768.647 C 785.937 769.803 784.999 770.741 783.843 770.741 L 502.224 770.741 C 501.069 770.741 500.13 769.803 500.13 768.647 L 500.13 726.308 C 500.13 725.152 501.069 724.214 502.224 724.214 Z " fill="rgb(255,0,0)"/></g><g opacity="0.3"><mask id="_mask_vQPPPUoPqsIH2ZtjCnYUL84NmH9lGXn0" x="-200%" y="-200%" width="400%" height="400%"><rect x="-200%" y="-200%" width="400%" height="400%" style="fill:white;"/><path d=" M 502.224 724.214 L 783.843 724.214 C 784.999 724.214 785.937 725.152 785.937 726.308 L 785.937 768.647 C 785.937 769.803 784.999 770.741 783.843 770.741 L 502.224 770.741 C 501.069 770.741 500.13 769.803 500.13 768.647 L 500.13 726.308 C 500.13 725.152 501.069 724.214 502.224 724.214 Z " fill="black" stroke="none"/></mask><path d=" M 502.224 724.214 L 783.843 724.214 C 784.999 724.214 785.937 725.152 785.937 726.308 L 785.937 768.647 C 785.937 769.803 784.999 770.741 783.843 770.741 L 502.224 770.741 C 501.069 770.741 500.13 769.803 500.13 768.647 L 500.13 726.308 C 500.13 725.152 501.069 724.214 502.224 724.214 Z " fill="none" mask="url(#_mask_vQPPPUoPqsIH2ZtjCnYUL84NmH9lGXn0)" vector-effect="non-scaling-stroke" stroke-width="4" stroke="rgb(71,6,6)" stroke-linejoin="miter" stroke-linecap="square" stroke-miterlimit="2"/><path d=" M 502.224 724.214 L 783.843 724.214 C 784.999 724.214 785.937 725.152 785.937 726.308 L 785.937 768.647 C 785.937 769.803 784.999 770.741 783.843 770.741 L 502.224 770.741 C 501.069 770.741 500.13 769.803 500.13 768.647 L 500.13 726.308 C 500.13 725.152 501.069 724.214 502.224 724.214 Z " fill="none"/></g></g><defs><filter id="VDDyjcv4wOykc8RZjbKpStVWL1qY1aoD" x="-200%" y="-200%" width="400%" height="400%" filterUnits="objectBoundingBox" color-interpolation-filters="sRGB"><feGaussianBlur xmlns="http://www.w3.org/2000/svg" stdDeviation="0"/></filter></defs><text transform="matrix(0.665,0,0,0.665,497.081,707.62)" style="font-family:'Open Sans';font-weight:700;font-size:15px;font-style:normal;font-variant-ligatures:none;fill:#FF0000;stroke:none;">Esqueci minha senha</text><g style="opacity:0.55;"><g style="mix-blend-mode:normal;" opacity="0.55"><text transform="matrix(0.665,0,0,0.665,621.342,752.635)" style="font-family:'Open Sans';font-weight:700;font-size:20px;font-style:normal;font-variant-ligatures:none;fill:#CACACA;stroke:none;">Entrar</text></g></g><g style="opacity:0.55;"><g style="mix-blend-mode:normal;" opacity="0.55"><text transform="matrix(0.665,0,0,0.665,522.449,593.78)" style="font-family:'Open Sans';font-weight:700;font-size:20px;font-style:normal;font-variant-ligatures:none;fill:#CACACA;stroke:none;">E-mail</text></g></g><g style="opacity:0.55;"><g style="mix-blend-mode:normal;" opacity="0.55"><text transform="matrix(0.665,0,0,0.665,519.624,656.755)" style="font-family:'Open Sans';font-weight:700;font-size:20px;font-style:normal;font-variant-ligatures:none;fill:#CACACA;stroke:none;">Senha</text></g></g><text transform="matrix(0.665,0,0,0.665,545.203,795.506)" style="font-family:'Open Sans';font-weight:400;font-size:20px;font-style:normal;font-variant-ligatures:none;fill:#FFFFFF;stroke:none;">Não tem uma conta? </text><text transform="matrix(0.665,0,0,0.665,677.201,795.506)" style="font-family:'Open Sans';font-weight:400;font-size:20px;font-style:normal;font-variant-ligatures:none;fill:#FF0000;stroke:none;">Registre-se</text><path d=" M 514.738 650.507 L 513.998 650.507 L 513.998 648.053 C 513.998 645.198 511.894 642.873 509.309 642.873 C 506.723 642.873 504.62 645.198 504.62 648.053 L 504.62 650.507 L 503.879 650.507 C 503.062 650.507 502.398 651.24 502.398 652.143 L 502.398 658.686 C 502.398 659.59 503.062 660.322 503.879 660.322 L 514.738 660.322 C 515.556 660.322 516.219 659.59 516.219 658.686 L 516.219 652.143 C 516.219 651.24 515.556 650.507 514.738 650.507 Z  M 511.53 650.507 L 507.087 650.507 L 507.087 648.053 C 507.087 646.7 508.084 645.6 509.309 645.6 C 510.534 645.6 511.53 646.7 511.53 648.053 L 511.53 650.507 Z " fill="rgb(67,30,6)"/><path d=" M 515.967 586.93 C 516.068 586.849 516.219 586.924 516.219 587.052 L 516.219 592.361 C 516.219 593.049 515.661 593.607 514.973 593.607 L 504.172 593.607 C 503.484 593.607 502.926 593.049 502.926 592.361 L 502.926 587.055 C 502.926 586.924 503.074 586.852 503.178 586.932 C 503.759 587.384 504.531 587.958 507.179 589.881 C 507.727 590.282 508.651 591.123 509.573 591.118 C 510.5 591.126 511.442 590.266 511.969 589.881 C 514.617 587.958 515.386 587.382 515.967 586.93 Z  M 509.573 590.284 C 510.175 590.295 511.042 589.526 511.478 589.209 C 514.924 586.709 515.186 586.491 515.981 585.867 C 516.131 585.751 516.219 585.569 516.219 585.377 L 516.219 584.884 C 516.219 584.196 515.661 583.637 514.973 583.637 L 504.172 583.637 C 503.484 583.637 502.926 584.196 502.926 584.884 L 502.926 585.377 C 502.926 585.569 503.014 585.748 503.165 585.867 C 503.96 586.488 504.221 586.709 507.667 589.209 C 508.103 589.526 508.97 590.295 509.573 590.284 Z " fill="rgb(67,30,6)"/></g></g><path d="M 707.365 428 L 1633.635 428 C 1638.252 428 1642 431.748 1642 436.365 L 1642 991.635 C 1642 996.252 1638.252 1000 1633.635 1000 L 707.365 1000 C 702.748 1000 699 996.252 699 991.635 L 699 436.365 C 699 431.748 702.748 428 707.365 428 Z" style="stroke:none;fill:#8A8A8A;stroke-linecap:square;stroke-miterlimit:2;"/><path d="M 707.365 428 L 1633.635 428 C 1638.252 428 1642 431.748 1642 436.365 L 1642 991.635 C 1642 996.252 1638.252 1000 1633.635 1000 L 707.365 1000 C 702.748 1000 699 996.252 699 991.635 L 699 436.365 C 699 431.748 702.748 428 707.365 428 Z" style="fill:none;stroke:#807A7A;stroke-width:1;stroke-linecap:square;stroke-miterlimit:2;"/><path d="M 1617.05 462 L 1887.95 462 C 1900.12 462 1910 471.88 1910 484.05 L 1910 977.95 C 1910 990.12 1900.12 1000 1887.95 1000 L 1617.05 1000 C 1604.88 1000 1595 990.12 1595 977.95 L 1595 484.05 C 1595 471.88 1604.88 462 1617.05 462 Z" style="stroke:none;fill:#B9B8B8;stroke-linecap:square;stroke-miterlimit:2;"/><rect x="1620" y="497.083" width="264" height="467.833" transform="matrix(1,0,0,1,0,0)" fill="rgb(8,8,8)"/><clipPath id="_clipPath_Y8Pvr6XoATDW2u85JZR2ItXMjNKu8Z7e"><rect x="757.5" y="443.167" width="812.5" height="541.667" transform="matrix(1,0,0,1,0,0)" fill="rgb(255,255,255)"/></clipPath><g clip-path="url(#_clipPath_Y8Pvr6XoATDW2u85JZR2ItXMjNKu8Z7e)"><g><rect x="729.333" y="430.167" width="841.909" height="556.158" transform="matrix(1,0,0,1,0,0)" fill="rgb(8,8,8)"/><text transform="matrix(0.964,0,0,0.964,1160.07,607.532)" style="font-family:'Open Sans';font-weight:700;font-size:26px;font-style:normal;font-variant-ligatures:none;fill:[Object GRGBColor];stroke:none;">SM</text><text transform="matrix(0.964,0,0,0.964,1197.491,607.532)" style="font-family:'Open Sans';font-weight:700;font-size:26px;font-style:normal;font-variant-ligatures:none;fill:[Object GRGBColor];stroke:none;">UH</text><path d=" M 1136.442 610.355 L 1113.392 622.866 L 1090.362 610.324 L 1090.381 585.27 L 1113.431 572.759 L 1136.461 585.301 L 1136.442 610.355 Z " fill="rgb(244,10,10)"/><path d=" M 1100.29 617.981 L 1088.358 597.235 L 1101.479 576.67 L 1126.533 576.852 L 1138.465 597.599 L 1125.344 618.163 L 1100.29 617.981 Z " fill="rgb(255,255,255)"/><path d=" M 1102.229 605.181 C 1103.992 605.181 1105.425 603.726 1105.425 601.936 C 1105.425 600.146 1103.992 598.691 1102.229 598.691 C 1100.466 598.691 1099.033 600.146 1099.033 601.936 C 1099.033 603.726 1100.466 605.181 1102.229 605.181 Z  M 1124.605 605.181 C 1126.368 605.181 1127.801 603.726 1127.801 601.936 C 1127.801 600.146 1126.368 598.691 1124.605 598.691 C 1122.842 598.691 1121.408 600.146 1121.408 601.936 C 1121.408 603.726 1122.842 605.181 1124.605 605.181 Z  M 1126.203 606.804 L 1123.006 606.804 C 1122.127 606.804 1121.333 607.164 1120.754 607.747 C 1122.766 608.868 1124.195 610.891 1124.505 613.294 L 1127.801 613.294 C 1128.685 613.294 1129.4 612.57 1129.4 611.672 L 1129.4 610.049 C 1129.4 608.259 1127.966 606.804 1126.203 606.804 Z  M 1113.417 606.804 C 1116.509 606.804 1119.01 604.263 1119.01 601.124 C 1119.01 597.986 1116.509 595.445 1113.417 595.445 C 1110.325 595.445 1107.823 597.986 1107.823 601.124 C 1107.823 604.263 1110.325 606.804 1113.417 606.804 Z  M 1117.253 608.426 L 1116.838 608.426 C 1115.8 608.933 1114.646 609.238 1113.417 609.238 C 1112.188 609.238 1111.039 608.933 1109.996 608.426 L 1109.581 608.426 C 1106.404 608.426 1103.827 611.043 1103.827 614.268 L 1103.827 615.729 C 1103.827 617.073 1104.901 618.163 1106.224 618.163 L 1120.609 618.163 C 1121.933 618.163 1123.006 617.073 1123.006 615.729 L 1123.006 614.268 C 1123.006 611.043 1120.429 608.426 1117.253 608.426 Z  M 1106.08 607.747 C 1105.5 607.164 1104.706 606.804 1103.827 606.804 L 1100.631 606.804 C 1098.868 606.804 1097.434 608.259 1097.434 610.049 L 1097.434 611.672 C 1097.434 612.57 1098.148 613.294 1099.033 613.294 L 1102.324 613.294 C 1102.639 610.891 1104.067 608.868 1106.08 607.747 Z " fill="rgb(255,0,0)"/><path d=" M 1109.926 585.332 C 1109.884 585.292 1109.828 585.27 1109.768 585.27 C 1109.709 585.27 1109.652 585.292 1109.61 585.332 L 1108.428 586.439 L 1108.007 586.052 C 1107.965 586.012 1107.909 585.99 1107.849 585.99 C 1107.79 585.99 1107.734 586.012 1107.692 586.052 L 1107.4 586.326 C 1107.358 586.366 1107.335 586.419 1107.335 586.475 C 1107.335 586.531 1107.358 586.584 1107.4 586.624 L 1108.283 587.452 C 1108.375 587.534 1108.519 587.534 1108.61 587.452 L 1108.9 587.179 L 1110.24 585.918 C 1110.327 585.835 1110.328 585.703 1110.241 585.62 L 1109.926 585.332 Z  M 1109.926 588.115 C 1109.884 588.075 1109.828 588.053 1109.768 588.053 C 1109.709 588.053 1109.652 588.075 1109.61 588.115 L 1108.428 589.228 L 1108.007 588.842 C 1107.965 588.802 1107.909 588.78 1107.849 588.78 C 1107.79 588.78 1107.734 588.802 1107.692 588.842 L 1107.4 589.116 C 1107.358 589.156 1107.335 589.209 1107.335 589.264 C 1107.335 589.32 1107.358 589.374 1107.4 589.413 L 1108.281 590.243 C 1108.373 590.326 1108.516 590.326 1108.608 590.243 L 1108.899 589.969 L 1110.239 588.707 C 1110.326 588.625 1110.327 588.494 1110.241 588.411 L 1109.926 588.115 Z  M 1108.523 591.143 C 1108.031 591.143 1107.621 591.519 1107.621 591.983 C 1107.621 592.446 1108.031 592.822 1108.523 592.822 C 1109.015 592.822 1109.413 592.446 1109.413 591.983 C 1109.413 591.519 1109.015 591.143 1108.523 591.143 Z  M 1116.541 591.424 L 1111.195 591.424 C 1111.031 591.424 1110.898 591.549 1110.898 591.703 L 1110.898 592.263 C 1110.898 592.417 1111.031 592.542 1111.195 592.542 L 1116.541 592.542 C 1116.705 592.542 1116.838 592.417 1116.838 592.263 L 1116.838 591.703 C 1116.838 591.549 1116.705 591.424 1116.541 591.424 Z  M 1116.541 585.83 L 1111.195 585.83 C 1111.031 585.83 1110.898 585.955 1110.898 586.11 L 1110.898 586.669 C 1110.898 586.823 1111.031 586.949 1111.195 586.949 L 1116.541 586.949 C 1116.705 586.949 1116.838 586.823 1116.838 586.669 L 1116.838 586.11 C 1116.838 585.955 1116.705 585.83 1116.541 585.83 Z  M 1116.541 588.626 L 1111.195 588.626 C 1111.031 588.626 1110.898 588.752 1110.898 588.906 L 1110.898 589.465 C 1110.898 589.62 1111.031 589.745 1111.195 589.745 L 1116.541 589.745 C 1116.705 589.745 1116.838 589.62 1116.838 589.465 L 1116.838 588.906 C 1116.838 588.752 1116.705 588.626 1116.541 588.626 Z " fill="rgb(255,0,0)"/><g style="opacity:0.3;" filter="url(#DNz9McoCsCZA8T1wcYhkmDPnck9LvDHt)"><g opacity="0.3"><path d=" M 1045.318 662.408 L 1274.822 662.408 C 1275.763 662.408 1276.528 663.172 1276.528 664.114 L 1276.528 698.618 C 1276.528 699.56 1275.763 700.325 1274.822 700.325 L 1045.318 700.325 C 1044.376 700.325 1043.612 699.56 1043.612 698.618 L 1043.612 664.114 C 1043.612 663.172 1044.376 662.408 1045.318 662.408 Z " fill="rgb(235,235,235)"/></g><g opacity="0.3"><mask id="_mask_KRGBwXWf1coy7skRuyuPjImEVgJRkB2c" x="-200%" y="-200%" width="400%" height="400%"><rect x="-200%" y="-200%" width="400%" height="400%" style="fill:white;"/><path d=" M 1045.318 662.408 L 1274.822 662.408 C 1275.763 662.408 1276.528 663.172 1276.528 664.114 L 1276.528 698.618 C 1276.528 699.56 1275.763 700.325 1274.822 700.325 L 1045.318 700.325 C 1044.376 700.325 1043.612 699.56 1043.612 698.618 L 1043.612 664.114 C 1043.612 663.172 1044.376 662.408 1045.318 662.408 Z " fill="black" stroke="none"/></mask><path d=" M 1045.318 662.408 L 1274.822 662.408 C 1275.763 662.408 1276.528 663.172 1276.528 664.114 L 1276.528 698.618 C 1276.528 699.56 1275.763 700.325 1274.822 700.325 L 1045.318 700.325 C 1044.376 700.325 1043.612 699.56 1043.612 698.618 L 1043.612 664.114 C 1043.612 663.172 1044.376 662.408 1045.318 662.408 Z " fill="none" mask="url(#_mask_KRGBwXWf1coy7skRuyuPjImEVgJRkB2c)" vector-effect="non-scaling-stroke" stroke-width="4" stroke="rgb(202,81,0)" stroke-linejoin="miter" stroke-linecap="square" stroke-miterlimit="2"/><path d=" M 1045.318 662.408 L 1274.822 662.408 C 1275.763 662.408 1276.528 663.172 1276.528 664.114 L 1276.528 698.618 C 1276.528 699.56 1275.763 700.325 1274.822 700.325 L 1045.318 700.325 C 1044.376 700.325 1043.612 699.56 1043.612 698.618 L 1043.612 664.114 C 1043.612 663.172 1044.376 662.408 1045.318 662.408 Z " fill="none"/></g></g><defs><filter id="DNz9McoCsCZA8T1wcYhkmDPnck9LvDHt" x="-200%" y="-200%" width="400%" height="400%" filterUnits="objectBoundingBox" color-interpolation-filters="sRGB"><feGaussianBlur xmlns="http://www.w3.org/2000/svg" stdDeviation="0"/></filter></defs><g style="opacity:0.3;" filter="url(#gxnWdHy1uiuLRRsxSsu5kYjdqD4CbI5o)"><g opacity="0.3"><path d=" M 1045.318 715.491 L 1274.822 715.491 C 1275.763 715.491 1276.528 716.256 1276.528 717.197 L 1276.528 751.702 C 1276.528 752.643 1275.763 753.408 1274.822 753.408 L 1045.318 753.408 C 1044.376 753.408 1043.612 752.643 1043.612 751.702 L 1043.612 717.197 C 1043.612 716.256 1044.376 715.491 1045.318 715.491 Z " fill="rgb(235,235,235)"/></g><g opacity="0.3"><mask id="_mask_qknvtg5eUbpAgvVoT4OLLZoMlxo68MQX" x="-200%" y="-200%" width="400%" height="400%"><rect x="-200%" y="-200%" width="400%" height="400%" style="fill:white;"/><path d=" M 1045.318 715.491 L 1274.822 715.491 C 1275.763 715.491 1276.528 716.256 1276.528 717.197 L 1276.528 751.702 C 1276.528 752.643 1275.763 753.408 1274.822 753.408 L 1045.318 753.408 C 1044.376 753.408 1043.612 752.643 1043.612 751.702 L 1043.612 717.197 C 1043.612 716.256 1044.376 715.491 1045.318 715.491 Z " fill="black" stroke="none"/></mask><path d=" M 1045.318 715.491 L 1274.822 715.491 C 1275.763 715.491 1276.528 716.256 1276.528 717.197 L 1276.528 751.702 C 1276.528 752.643 1275.763 753.408 1274.822 753.408 L 1045.318 753.408 C 1044.376 753.408 1043.612 752.643 1043.612 751.702 L 1043.612 717.197 C 1043.612 716.256 1044.376 715.491 1045.318 715.491 Z " fill="none" mask="url(#_mask_qknvtg5eUbpAgvVoT4OLLZoMlxo68MQX)" vector-effect="non-scaling-stroke" stroke-width="4" stroke="rgb(202,81,0)" stroke-linejoin="miter" stroke-linecap="square" stroke-miterlimit="2"/><path d=" M 1045.318 715.491 L 1274.822 715.491 C 1275.763 715.491 1276.528 716.256 1276.528 717.197 L 1276.528 751.702 C 1276.528 752.643 1275.763 753.408 1274.822 753.408 L 1045.318 753.408 C 1044.376 753.408 1043.612 752.643 1043.612 751.702 L 1043.612 717.197 C 1043.612 716.256 1044.376 715.491 1045.318 715.491 Z " fill="none"/></g></g><defs><filter id="gxnWdHy1uiuLRRsxSsu5kYjdqD4CbI5o" x="-200%" y="-200%" width="400%" height="400%" filterUnits="objectBoundingBox" color-interpolation-filters="sRGB"><feGaussianBlur xmlns="http://www.w3.org/2000/svg" stdDeviation="0"/></filter></defs><g style="opacity:0.3;" filter="url(#UqD88r2CgP2PPnSHDpPK4NeHDPjSNwDe)"><g opacity="0.3"><path d=" M 1047.803 791.866 L 1277.307 791.866 C 1278.249 791.866 1279.013 792.631 1279.013 793.572 L 1279.013 828.077 C 1279.013 829.018 1278.249 829.783 1277.307 829.783 L 1047.803 829.783 C 1046.862 829.783 1046.097 829.018 1046.097 828.077 L 1046.097 793.572 C 1046.097 792.631 1046.862 791.866 1047.803 791.866 Z " fill="rgb(255,0,0)"/></g><g opacity="0.3"><mask id="_mask_DhvuRABWAXZHnJtTUIQHNZVtn8V4w9cV" x="-200%" y="-200%" width="400%" height="400%"><rect x="-200%" y="-200%" width="400%" height="400%" style="fill:white;"/><path d=" M 1047.803 791.866 L 1277.307 791.866 C 1278.249 791.866 1279.013 792.631 1279.013 793.572 L 1279.013 828.077 C 1279.013 829.018 1278.249 829.783 1277.307 829.783 L 1047.803 829.783 C 1046.862 829.783 1046.097 829.018 1046.097 828.077 L 1046.097 793.572 C 1046.097 792.631 1046.862 791.866 1047.803 791.866 Z " fill="black" stroke="none"/></mask><path d=" M 1047.803 791.866 L 1277.307 791.866 C 1278.249 791.866 1279.013 792.631 1279.013 793.572 L 1279.013 828.077 C 1279.013 829.018 1278.249 829.783 1277.307 829.783 L 1047.803 829.783 C 1046.862 829.783 1046.097 829.018 1046.097 828.077 L 1046.097 793.572 C 1046.097 792.631 1046.862 791.866 1047.803 791.866 Z " fill="none" mask="url(#_mask_DhvuRABWAXZHnJtTUIQHNZVtn8V4w9cV)" vector-effect="non-scaling-stroke" stroke-width="4" stroke="rgb(71,6,6)" stroke-linejoin="miter" stroke-linecap="square" stroke-miterlimit="2"/><path d=" M 1047.803 791.866 L 1277.307 791.866 C 1278.249 791.866 1279.013 792.631 1279.013 793.572 L 1279.013 828.077 C 1279.013 829.018 1278.249 829.783 1277.307 829.783 L 1047.803 829.783 C 1046.862 829.783 1046.097 829.018 1046.097 828.077 L 1046.097 793.572 C 1046.097 792.631 1046.862 791.866 1047.803 791.866 Z " fill="none"/></g></g><defs><filter id="UqD88r2CgP2PPnSHDpPK4NeHDPjSNwDe" x="-200%" y="-200%" width="400%" height="400%" filterUnits="objectBoundingBox" color-interpolation-filters="sRGB"><feGaussianBlur xmlns="http://www.w3.org/2000/svg" stdDeviation="0"/></filter></defs><text transform="matrix(0.542,0,0,0.542,1043.612,778.342)" style="font-family:'Open Sans';font-weight:700;font-size:15px;font-style:normal;font-variant-ligatures:none;fill:[Object GRGBColor];stroke:none;">Esqueci minha senha</text><g style="opacity:0.55;"><g style="mix-blend-mode:normal;" opacity="0.55"><text transform="matrix(0.542,0,0,0.542,1144.877,815.027)" style="font-family:'Open Sans';font-weight:700;font-size:20px;font-style:normal;font-variant-ligatures:none;fill:[Object GRGBColor];stroke:none;">Entrar</text></g></g><g style="opacity:0.55;"><g style="mix-blend-mode:normal;" opacity="0.55"><text transform="matrix(0.542,0,0,0.542,1064.285,685.569)" style="font-family:'Open Sans';font-weight:700;font-size:20px;font-style:normal;font-variant-ligatures:none;fill:[Object GRGBColor];stroke:none;">E-mail</text></g></g><g style="opacity:0.55;"><g style="mix-blend-mode:normal;" opacity="0.55"><text transform="matrix(0.542,0,0,0.542,1061.983,736.89)" style="font-family:'Open Sans';font-weight:700;font-size:20px;font-style:normal;font-variant-ligatures:none;fill:[Object GRGBColor];stroke:none;">Senha</text></g></g><text transform="matrix(0.542,0,0,0.542,1082.828,849.965)" style="font-family:'Open Sans';font-weight:400;font-size:20px;font-style:normal;font-variant-ligatures:none;fill:[Object GRGBColor];stroke:none;">Não tem uma conta? </text><text transform="matrix(0.542,0,0,0.542,1190.399,849.965)" style="font-family:'Open Sans';font-weight:400;font-size:20px;font-style:normal;font-variant-ligatures:none;fill:[Object GRGBColor];stroke:none;">Registre-se</text><path d=" M 1058.001 731.799 L 1057.398 731.799 L 1057.398 729.799 C 1057.398 727.472 1055.684 725.578 1053.577 725.578 C 1051.47 725.578 1049.755 727.472 1049.755 729.799 L 1049.755 731.799 L 1049.152 731.799 C 1048.485 731.799 1047.945 732.396 1047.945 733.132 L 1047.945 738.464 C 1047.945 739.2 1048.485 739.797 1049.152 739.797 L 1058.001 739.797 C 1058.668 739.797 1059.208 739.2 1059.208 738.464 L 1059.208 733.132 C 1059.208 732.396 1058.668 731.799 1058.001 731.799 Z  M 1055.387 731.799 L 1051.766 731.799 L 1051.766 729.799 C 1051.766 728.697 1052.578 727.8 1053.577 727.8 C 1054.575 727.8 1055.387 728.697 1055.387 729.799 L 1055.387 731.799 Z " fill="rgb(67,30,6)"/><path d=" M 1059.003 679.987 C 1059.085 679.921 1059.208 679.982 1059.208 680.086 L 1059.208 684.413 C 1059.208 684.974 1058.753 685.429 1058.193 685.429 L 1049.391 685.429 C 1048.83 685.429 1048.375 684.974 1048.375 684.413 L 1048.375 680.088 C 1048.375 679.982 1048.496 679.923 1048.58 679.989 C 1049.054 680.357 1049.683 680.825 1051.841 682.392 C 1052.287 682.718 1053.04 683.404 1053.792 683.4 C 1054.547 683.406 1055.315 682.706 1055.744 682.392 C 1057.903 680.825 1058.529 680.355 1059.003 679.987 Z  M 1053.792 682.72 C 1054.282 682.729 1054.989 682.102 1055.345 681.844 C 1058.153 679.807 1058.366 679.629 1059.014 679.121 C 1059.136 679.026 1059.208 678.878 1059.208 678.721 L 1059.208 678.319 C 1059.208 677.759 1058.753 677.304 1058.193 677.304 L 1049.391 677.304 C 1048.83 677.304 1048.375 677.759 1048.375 678.319 L 1048.375 678.721 C 1048.375 678.878 1048.447 679.024 1048.569 679.121 C 1049.217 679.627 1049.431 679.807 1052.239 681.844 C 1052.594 682.102 1053.301 682.729 1053.792 682.72 Z " fill="rgb(67,30,6)"/></g></g><clipPath id="_clipPath_aE7MR5TjP9NsKJT5io9GDZlG4t6iy3Kb"><rect x="1401.625" y="497.083" width="701.75" height="467.833" transform="matrix(1,0,0,1,0,0)" fill="rgb(255,255,255)"/></clipPath><g clip-path="url(#_clipPath_aE7MR5TjP9NsKJT5io9GDZlG4t6iy3Kb)"><g><rect x="2135" y="218.956" width="727.151" height="480.349" transform="matrix(1,0,0,1,0,0)" fill="rgb(8,8,8)"/><text transform="matrix(0.832,0,0,0.832,1749.322,639.044)" style="font-family:'Open Sans';font-weight:700;font-size:26px;font-style:normal;font-variant-ligatures:none;fill:[Object GCMYKColor];stroke:none;">SM</text><text transform="matrix(0.832,0,0,0.832,1781.642,639.044)" style="font-family:'Open Sans';font-weight:700;font-size:26px;font-style:normal;font-variant-ligatures:none;fill:[Object GCMYKColor];stroke:none;">UH</text><path d=" M 1728.914 641.482 L 1709.006 652.288 L 1689.115 641.456 L 1689.132 619.817 L 1709.04 609.011 L 1728.931 619.844 L 1728.914 641.482 Z " fill="rgb(244,10,10)"/><path d=" M 1697.691 648.069 L 1687.385 630.151 L 1698.717 612.389 L 1720.356 612.546 L 1730.662 630.465 L 1719.329 648.226 L 1697.691 648.069 Z " fill="rgb(255,255,255)"/><path d=" M 1699.365 637.014 C 1700.888 637.014 1702.126 635.757 1702.126 634.211 C 1702.126 632.665 1700.888 631.408 1699.365 631.408 C 1697.842 631.408 1696.604 632.665 1696.604 634.211 C 1696.604 635.757 1697.842 637.014 1699.365 637.014 Z  M 1718.691 637.014 C 1720.213 637.014 1721.451 635.757 1721.451 634.211 C 1721.451 632.665 1720.213 631.408 1718.691 631.408 C 1717.168 631.408 1715.929 632.665 1715.929 634.211 C 1715.929 635.757 1717.168 637.014 1718.691 637.014 Z  M 1720.071 638.416 L 1717.31 638.416 C 1716.551 638.416 1715.865 638.726 1715.364 639.23 C 1717.103 640.198 1718.337 641.946 1718.604 644.021 L 1721.451 644.021 C 1722.215 644.021 1722.832 643.395 1722.832 642.62 L 1722.832 641.219 C 1722.832 639.672 1721.594 638.416 1720.071 638.416 Z  M 1709.028 638.416 C 1711.698 638.416 1713.859 636.221 1713.859 633.51 C 1713.859 630.799 1711.698 628.605 1709.028 628.605 C 1706.358 628.605 1704.196 630.799 1704.196 633.51 C 1704.196 636.221 1706.358 638.416 1709.028 638.416 Z  M 1712.341 639.817 L 1711.982 639.817 C 1711.086 640.255 1710.089 640.518 1709.028 640.518 C 1707.966 640.518 1706.974 640.255 1706.073 639.817 L 1705.715 639.817 C 1702.971 639.817 1700.745 642.077 1700.745 644.863 L 1700.745 646.124 C 1700.745 647.285 1701.673 648.226 1702.816 648.226 L 1715.239 648.226 C 1716.383 648.226 1717.31 647.285 1717.31 646.124 L 1717.31 644.863 C 1717.31 642.077 1715.084 639.817 1712.341 639.817 Z  M 1702.691 639.23 C 1702.19 638.726 1701.504 638.416 1700.745 638.416 L 1697.984 638.416 C 1696.462 638.416 1695.224 639.672 1695.224 641.219 L 1695.224 642.62 C 1695.224 643.395 1695.84 644.021 1696.604 644.021 L 1699.447 644.021 C 1699.719 641.946 1700.952 640.198 1702.691 639.23 Z " fill="rgb(255,0,0)"/><path d=" M 1706.013 619.87 C 1705.976 619.836 1705.928 619.817 1705.876 619.817 C 1705.825 619.817 1705.776 619.836 1705.74 619.87 L 1704.719 620.826 L 1704.355 620.492 C 1704.319 620.458 1704.27 620.439 1704.219 620.439 C 1704.168 620.439 1704.119 620.458 1704.083 620.492 L 1703.831 620.729 C 1703.795 620.764 1703.775 620.809 1703.775 620.858 C 1703.775 620.906 1703.795 620.952 1703.831 620.986 L 1704.594 621.701 C 1704.673 621.773 1704.797 621.773 1704.876 621.701 L 1705.126 621.466 L 1706.284 620.376 C 1706.359 620.305 1706.359 620.191 1706.285 620.119 L 1706.013 619.87 Z  M 1706.013 622.274 C 1705.976 622.24 1705.928 622.22 1705.876 622.22 C 1705.825 622.22 1705.776 622.24 1705.74 622.274 L 1704.719 623.236 L 1704.355 622.902 C 1704.319 622.868 1704.27 622.849 1704.219 622.849 C 1704.168 622.849 1704.119 622.868 1704.083 622.902 L 1703.831 623.139 C 1703.795 623.173 1703.775 623.219 1703.775 623.267 C 1703.775 623.315 1703.795 623.361 1703.831 623.396 L 1704.592 624.112 C 1704.671 624.183 1704.795 624.183 1704.874 624.112 L 1705.126 623.876 L 1706.283 622.785 C 1706.358 622.715 1706.359 622.601 1706.285 622.53 L 1706.013 622.274 Z  M 1704.801 624.89 C 1704.376 624.89 1704.022 625.214 1704.022 625.614 C 1704.022 626.014 1704.376 626.339 1704.801 626.339 C 1705.225 626.339 1705.57 626.015 1705.57 625.614 C 1705.57 625.214 1705.225 624.89 1704.801 624.89 Z  M 1711.726 625.132 L 1707.109 625.132 C 1706.967 625.132 1706.853 625.24 1706.853 625.373 L 1706.853 625.856 C 1706.853 625.99 1706.967 626.098 1707.109 626.098 L 1711.726 626.098 C 1711.868 626.098 1711.982 625.99 1711.982 625.856 L 1711.982 625.373 C 1711.982 625.24 1711.868 625.132 1711.726 625.132 Z  M 1711.726 620.3 L 1707.109 620.3 C 1706.967 620.3 1706.853 620.408 1706.853 620.542 L 1706.853 621.025 C 1706.853 621.158 1706.967 621.267 1707.109 621.267 L 1711.726 621.267 C 1711.868 621.267 1711.982 621.158 1711.982 621.025 L 1711.982 620.542 C 1711.982 620.408 1711.868 620.3 1711.726 620.3 Z  M 1711.726 622.716 L 1707.109 622.716 C 1706.967 622.716 1706.853 622.824 1706.853 622.958 L 1706.853 623.44 C 1706.853 623.574 1706.967 623.682 1707.109 623.682 L 1711.726 623.682 C 1711.868 623.682 1711.982 623.574 1711.982 623.44 L 1711.982 622.958 C 1711.982 622.824 1711.868 622.716 1711.726 622.716 Z " fill="rgb(255,0,0)"/><g style="opacity:0.3;" filter="url(#EZXFWtUBDoAxOsQFcmChPviGkjMGa64l)"><g opacity="0.3"><path d=" M 1650.211 686.44 L 1848.432 686.44 C 1849.245 686.44 1849.906 687.1 1849.906 687.914 L 1849.906 717.715 C 1849.906 718.528 1849.245 719.189 1848.432 719.189 L 1650.211 719.189 C 1649.397 719.189 1648.737 718.528 1648.737 717.715 L 1648.737 687.914 C 1648.737 687.1 1649.397 686.44 1650.211 686.44 Z " fill="rgb(235,235,235)"/></g><g opacity="0.3"><mask id="_mask_g2uKm3WzErAdCMcT5twhudvd8lvkjpLe" x="-200%" y="-200%" width="400%" height="400%"><rect x="-200%" y="-200%" width="400%" height="400%" style="fill:white;"/><path d=" M 1650.211 686.44 L 1848.432 686.44 C 1849.245 686.44 1849.906 687.1 1849.906 687.914 L 1849.906 717.715 C 1849.906 718.528 1849.245 719.189 1848.432 719.189 L 1650.211 719.189 C 1649.397 719.189 1648.737 718.528 1648.737 717.715 L 1648.737 687.914 C 1648.737 687.1 1649.397 686.44 1650.211 686.44 Z " fill="black" stroke="none"/></mask><path d=" M 1650.211 686.44 L 1848.432 686.44 C 1849.245 686.44 1849.906 687.1 1849.906 687.914 L 1849.906 717.715 C 1849.906 718.528 1849.245 719.189 1848.432 719.189 L 1650.211 719.189 C 1649.397 719.189 1648.737 718.528 1648.737 717.715 L 1648.737 687.914 C 1648.737 687.1 1649.397 686.44 1650.211 686.44 Z " fill="none" mask="url(#_mask_g2uKm3WzErAdCMcT5twhudvd8lvkjpLe)" vector-effect="non-scaling-stroke" stroke-width="4" stroke="rgb(202,81,0)" stroke-linejoin="miter" stroke-linecap="square" stroke-miterlimit="2"/><path d=" M 1650.211 686.44 L 1848.432 686.44 C 1849.245 686.44 1849.906 687.1 1849.906 687.914 L 1849.906 717.715 C 1849.906 718.528 1849.245 719.189 1848.432 719.189 L 1650.211 719.189 C 1649.397 719.189 1648.737 718.528 1648.737 717.715 L 1648.737 687.914 C 1648.737 687.1 1649.397 686.44 1650.211 686.44 Z " fill="none"/></g></g><defs><filter id="EZXFWtUBDoAxOsQFcmChPviGkjMGa64l" x="-200%" y="-200%" width="400%" height="400%" filterUnits="objectBoundingBox" color-interpolation-filters="sRGB"><feGaussianBlur xmlns="http://www.w3.org/2000/svg" stdDeviation="0"/></filter></defs><g style="opacity:0.3;" filter="url(#lQ29X3ZXph8dRFTXQGrEIgj7z292AaGL)"><g opacity="0.3"><path d=" M 1650.211 732.288 L 1848.432 732.288 C 1849.245 732.288 1849.906 732.948 1849.906 733.762 L 1849.906 763.563 C 1849.906 764.376 1849.245 765.036 1848.432 765.036 L 1650.211 765.036 C 1649.397 765.036 1648.737 764.376 1648.737 763.563 L 1648.737 733.762 C 1648.737 732.948 1649.397 732.288 1650.211 732.288 Z " fill="rgb(235,235,235)"/></g><g opacity="0.3"><mask id="_mask_8iGVS2jJzKZJ1FyOiTyvqZALxxlSqccG" x="-200%" y="-200%" width="400%" height="400%"><rect x="-200%" y="-200%" width="400%" height="400%" style="fill:white;"/><path d=" M 1650.211 732.288 L 1848.432 732.288 C 1849.245 732.288 1849.906 732.948 1849.906 733.762 L 1849.906 763.563 C 1849.906 764.376 1849.245 765.036 1848.432 765.036 L 1650.211 765.036 C 1649.397 765.036 1648.737 764.376 1648.737 763.563 L 1648.737 733.762 C 1648.737 732.948 1649.397 732.288 1650.211 732.288 Z " fill="black" stroke="none"/></mask><path d=" M 1650.211 732.288 L 1848.432 732.288 C 1849.245 732.288 1849.906 732.948 1849.906 733.762 L 1849.906 763.563 C 1849.906 764.376 1849.245 765.036 1848.432 765.036 L 1650.211 765.036 C 1649.397 765.036 1648.737 764.376 1648.737 763.563 L 1648.737 733.762 C 1648.737 732.948 1649.397 732.288 1650.211 732.288 Z " fill="none" mask="url(#_mask_8iGVS2jJzKZJ1FyOiTyvqZALxxlSqccG)" vector-effect="non-scaling-stroke" stroke-width="4" stroke="rgb(202,81,0)" stroke-linejoin="miter" stroke-linecap="square" stroke-miterlimit="2"/><path d=" M 1650.211 732.288 L 1848.432 732.288 C 1849.245 732.288 1849.906 732.948 1849.906 733.762 L 1849.906 763.563 C 1849.906 764.376 1849.245 765.036 1848.432 765.036 L 1650.211 765.036 C 1649.397 765.036 1648.737 764.376 1648.737 763.563 L 1648.737 733.762 C 1648.737 732.948 1649.397 732.288 1650.211 732.288 Z " fill="none"/></g></g><defs><filter id="lQ29X3ZXph8dRFTXQGrEIgj7z292AaGL" x="-200%" y="-200%" width="400%" height="400%" filterUnits="objectBoundingBox" color-interpolation-filters="sRGB"><feGaussianBlur xmlns="http://www.w3.org/2000/svg" stdDeviation="0"/></filter></defs><g style="opacity:0.3;" filter="url(#Q5m6t0SSPEqqAzIjICZo9kVderlzBp1B)"><g opacity="0.3"><path d=" M 1652.357 798.252 L 1850.578 798.252 C 1851.392 798.252 1852.052 798.913 1852.052 799.726 L 1852.052 829.527 C 1852.052 830.34 1851.392 831.001 1850.578 831.001 L 1652.357 831.001 C 1651.544 831.001 1650.884 830.34 1650.884 829.527 L 1650.884 799.726 C 1650.884 798.913 1651.544 798.252 1652.357 798.252 Z " fill="rgb(255,0,0)"/></g><g opacity="0.3"><mask id="_mask_qZGpI4gN2HSgMQno5tCTM4jg115M0fuI" x="-200%" y="-200%" width="400%" height="400%"><rect x="-200%" y="-200%" width="400%" height="400%" style="fill:white;"/><path d=" M 1652.357 798.252 L 1850.578 798.252 C 1851.392 798.252 1852.052 798.913 1852.052 799.726 L 1852.052 829.527 C 1852.052 830.34 1851.392 831.001 1850.578 831.001 L 1652.357 831.001 C 1651.544 831.001 1650.884 830.34 1650.884 829.527 L 1650.884 799.726 C 1650.884 798.913 1651.544 798.252 1652.357 798.252 Z " fill="black" stroke="none"/></mask><path d=" M 1652.357 798.252 L 1850.578 798.252 C 1851.392 798.252 1852.052 798.913 1852.052 799.726 L 1852.052 829.527 C 1852.052 830.34 1851.392 831.001 1850.578 831.001 L 1652.357 831.001 C 1651.544 831.001 1650.884 830.34 1650.884 829.527 L 1650.884 799.726 C 1650.884 798.913 1651.544 798.252 1652.357 798.252 Z " fill="none" mask="url(#_mask_qZGpI4gN2HSgMQno5tCTM4jg115M0fuI)" vector-effect="non-scaling-stroke" stroke-width="4" stroke="rgb(71,6,6)" stroke-linejoin="miter" stroke-linecap="square" stroke-miterlimit="2"/><path d=" M 1652.357 798.252 L 1850.578 798.252 C 1851.392 798.252 1852.052 798.913 1852.052 799.726 L 1852.052 829.527 C 1852.052 830.34 1851.392 831.001 1850.578 831.001 L 1652.357 831.001 C 1651.544 831.001 1650.884 830.34 1650.884 829.527 L 1650.884 799.726 C 1650.884 798.913 1651.544 798.252 1652.357 798.252 Z " fill="none"/></g></g><defs><filter id="Q5m6t0SSPEqqAzIjICZo9kVderlzBp1B" x="-200%" y="-200%" width="400%" height="400%" filterUnits="objectBoundingBox" color-interpolation-filters="sRGB"><feGaussianBlur xmlns="http://www.w3.org/2000/svg" stdDeviation="0"/></filter></defs><text transform="matrix(0.468,0,0,0.468,1648.737,786.572)" style="font-family:'Open Sans';font-weight:700;font-size:15px;font-style:normal;font-variant-ligatures:none;fill:[Object GCMYKColor];stroke:none;">Esqueci minha senha</text><g style="opacity:0.55;"><g style="mix-blend-mode:normal;" opacity="0.55"><text transform="matrix(0.468,0,0,0.468,1736.2,818.257)" style="font-family:'Open Sans';font-weight:700;font-size:20px;font-style:normal;font-variant-ligatures:none;fill:[Object GCMYKColor];stroke:none;">Entrar</text></g></g><g style="opacity:0.55;"><g style="mix-blend-mode:normal;" opacity="0.55"><text transform="matrix(0.468,0,0,0.468,1666.593,706.444)" style="font-family:'Open Sans';font-weight:700;font-size:20px;font-style:normal;font-variant-ligatures:none;fill:[Object GCMYKColor];stroke:none;">E-mail</text></g></g><g style="opacity:0.55;"><g style="mix-blend-mode:normal;" opacity="0.55"><text transform="matrix(0.468,0,0,0.468,1664.604,750.77)" style="font-family:'Open Sans';font-weight:700;font-size:20px;font-style:normal;font-variant-ligatures:none;fill:[Object GCMYKColor];stroke:none;">Senha</text></g></g><text transform="matrix(0.468,0,0,0.468,1682.609,848.432)" style="font-family:'Open Sans';font-weight:400;font-size:20px;font-style:normal;font-variant-ligatures:none;fill:[Object GCMYKColor];stroke:none;">Não tem uma conta? </text><text transform="matrix(0.468,0,0,0.468,1775.517,848.432)" style="font-family:'Open Sans';font-weight:400;font-size:20px;font-style:normal;font-variant-ligatures:none;fill:[Object GCMYKColor];stroke:none;">Registre-se</text><path d=" M 1661.166 746.373 L 1660.645 746.373 L 1660.645 744.645 C 1660.645 742.635 1659.164 740.999 1657.344 740.999 C 1655.524 740.999 1654.044 742.635 1654.044 744.645 L 1654.044 746.373 L 1653.522 746.373 C 1652.947 746.373 1652.48 746.889 1652.48 747.524 L 1652.48 752.13 C 1652.48 752.765 1652.947 753.281 1653.522 753.281 L 1661.166 753.281 C 1661.741 753.281 1662.208 752.765 1662.208 752.13 L 1662.208 747.524 C 1662.208 746.889 1661.741 746.373 1661.166 746.373 Z  M 1658.908 746.373 L 1655.781 746.373 L 1655.781 744.645 C 1655.781 743.693 1656.482 742.919 1657.344 742.919 C 1658.206 742.919 1658.908 743.693 1658.908 744.645 L 1658.908 746.373 Z " fill="rgb(67,30,6)"/><path d=" M 1662.031 701.623 C 1662.102 701.566 1662.208 701.619 1662.208 701.709 L 1662.208 705.446 C 1662.208 705.93 1661.815 706.323 1661.331 706.323 L 1653.729 706.323 C 1653.244 706.323 1652.851 705.93 1652.851 705.446 L 1652.851 701.711 C 1652.851 701.619 1652.956 701.568 1653.029 701.625 C 1653.438 701.943 1653.981 702.347 1655.845 703.701 C 1656.231 703.982 1656.881 704.574 1657.53 704.571 C 1658.182 704.576 1658.846 703.971 1659.216 703.701 C 1661.081 702.347 1661.621 701.941 1662.031 701.623 Z  M 1657.53 703.984 C 1657.954 703.992 1658.564 703.45 1658.871 703.228 C 1661.296 701.468 1661.481 701.314 1662.04 700.875 C 1662.146 700.793 1662.208 700.665 1662.208 700.53 L 1662.208 700.183 C 1662.208 699.699 1661.815 699.306 1661.331 699.306 L 1653.729 699.306 C 1653.244 699.306 1652.851 699.699 1652.851 700.183 L 1652.851 700.53 C 1652.851 700.665 1652.914 700.792 1653.019 700.875 C 1653.579 701.312 1653.763 701.468 1656.189 703.228 C 1656.495 703.45 1657.106 703.992 1657.53 703.984 Z " fill="rgb(67,30,6)"/></g></g></g></svg>