<?xml version="1.0" encoding="UTF-8" standalone="no"?><!-- Generator: Gravit.io --><svg xmlns="http://www.w3.org/2000/svg" xmlns:xlink="http://www.w3.org/1999/xlink" style="isolation:isolate" viewBox="0 0 4000 3000" width="4000pt" height="3000pt"><defs><clipPath id="_clipPath_6PlhDpGPOGLUb8nxwj0KQ3oaZol7AbRV"><rect width="4000" height="3000"/></clipPath></defs><g clip-path="url(#_clipPath_6PlhDpGPOGLUb8nxwj0KQ3oaZol7AbRV)"><rect x="1.1" y="0.4" width="1554.294" height="1027.8" transform="matrix(1,0,0,1,0,0)" fill="rgb(8,8,8)"/><rect x="80" y="1433" width="1554.294" height="1027.8" transform="matrix(1,0,0,1,0,0)" fill="rgb(49,49,49)"/><text transform="matrix(1.779,0,0,1.779,795.206,327.443)" style="font-family:'Open Sans';font-weight:700;font-size:26px;font-style:normal;fill:#b3b3b3;stroke:none;">SM</text><text transform="matrix(1.779,0,0,1.779,864.292,327.443)" style="font-family:'Open Sans';font-weight:700;font-size:26px;font-style:normal;fill:#d90101;stroke:none;">UH</text><polygon points="751.585,332.655,709.032,355.753,666.514,332.598,666.55,286.345,709.103,263.247,751.621,286.402" fill="rgb(244,10,10)"/><polygon points="684.844,346.734,662.815,308.433,687.038,270.468,733.291,270.804,755.32,309.105,731.097,347.07" fill="rgb(255,255,255)"/><path d=" M 688.423 323.104 C 691.678 323.104 694.324 320.417 694.324 317.112 C 694.324 313.808 691.678 311.121 688.423 311.121 C 685.168 311.121 682.522 313.808 682.522 317.112 C 682.522 320.417 685.168 323.104 688.423 323.104 Z  M 729.732 323.104 C 732.987 323.104 735.633 320.417 735.633 317.112 C 735.633 313.808 732.987 311.121 729.732 311.121 C 726.477 311.121 723.83 313.808 723.83 317.112 C 723.83 320.417 726.477 323.104 729.732 323.104 Z  M 732.682 326.1 L 726.781 326.1 C 725.158 326.1 723.692 326.764 722.622 327.841 C 726.338 329.91 728.976 333.645 729.547 338.082 L 735.633 338.082 C 737.265 338.082 738.584 336.744 738.584 335.087 L 738.584 332.091 C 738.584 328.786 735.937 326.1 732.682 326.1 Z  M 709.077 326.1 C 714.785 326.1 719.404 321.409 719.404 315.614 C 719.404 309.82 714.785 305.129 709.077 305.129 C 703.37 305.129 698.75 309.82 698.75 315.614 C 698.75 321.409 703.37 326.1 709.077 326.1 Z  M 716.159 329.095 L 715.393 329.095 C 713.476 330.031 711.346 330.593 709.077 330.593 C 706.809 330.593 704.688 330.031 702.761 329.095 L 701.996 329.095 C 696.131 329.095 691.373 333.926 691.373 339.88 L 691.373 342.576 C 691.373 345.057 693.356 347.07 695.799 347.07 L 722.355 347.07 C 724.799 347.07 726.781 345.057 726.781 342.576 L 726.781 339.88 C 726.781 333.926 722.023 329.095 716.159 329.095 Z  M 695.532 327.841 C 694.462 326.764 692.996 326.1 691.373 326.1 L 685.472 326.1 C 682.217 326.1 679.571 328.786 679.571 332.091 L 679.571 335.087 C 679.571 336.744 680.889 338.082 682.522 338.082 L 688.598 338.082 C 689.179 333.645 691.816 329.91 695.532 327.841 Z " fill="rgb(255,0,0)"/><path d=" M 702.633 286.459 C 702.555 286.386 702.451 286.345 702.341 286.345 C 702.232 286.345 702.127 286.386 702.05 286.459 L 699.868 288.502 L 699.09 287.788 C 699.013 287.715 698.908 287.674 698.799 287.674 C 698.689 287.674 698.585 287.715 698.508 287.788 L 697.97 288.295 C 697.892 288.368 697.849 288.466 697.849 288.569 C 697.849 288.672 697.892 288.771 697.97 288.844 L 699.6 290.373 C 699.769 290.525 700.035 290.525 700.204 290.373 L 700.738 289.869 L 703.212 287.54 C 703.373 287.388 703.374 287.144 703.215 286.991 L 702.633 286.459 Z  M 702.633 291.596 C 702.555 291.523 702.451 291.482 702.341 291.482 C 702.232 291.482 702.127 291.523 702.05 291.596 L 699.868 293.652 L 699.09 292.939 C 699.013 292.866 698.908 292.825 698.799 292.825 C 698.689 292.825 698.585 292.866 698.508 292.939 L 697.97 293.445 C 697.892 293.518 697.849 293.616 697.849 293.719 C 697.849 293.822 697.892 293.921 697.97 293.994 L 699.596 295.526 C 699.765 295.678 700.03 295.678 700.199 295.526 L 700.737 295.02 L 703.211 292.69 C 703.371 292.539 703.373 292.296 703.214 292.144 L 702.633 291.596 Z  M 700.042 297.188 C 699.134 297.188 698.377 297.882 698.377 298.737 C 698.377 299.592 699.135 300.286 700.042 300.286 C 700.95 300.286 701.686 299.593 701.686 298.737 C 701.686 297.882 700.95 297.188 700.042 297.188 Z  M 714.845 297.705 L 704.976 297.705 C 704.673 297.705 704.428 297.936 704.428 298.221 L 704.428 299.254 C 704.428 299.539 704.673 299.77 704.976 299.77 L 714.845 299.77 C 715.148 299.77 715.393 299.539 715.393 299.254 L 715.393 298.221 C 715.393 297.936 715.148 297.705 714.845 297.705 Z  M 714.845 287.378 L 704.976 287.378 C 704.673 287.378 704.428 287.609 704.428 287.895 L 704.428 288.927 C 704.428 289.212 704.673 289.444 704.976 289.444 L 714.845 289.444 C 715.148 289.444 715.393 289.212 715.393 288.927 L 715.393 287.895 C 715.393 287.609 715.148 287.378 714.845 287.378 Z  M 714.845 292.541 L 704.976 292.541 C 704.673 292.541 704.428 292.773 704.428 293.058 L 704.428 294.09 C 704.428 294.376 704.673 294.607 704.976 294.607 L 714.845 294.607 C 715.148 294.607 715.393 294.376 715.393 294.09 L 715.393 293.058 C 715.393 292.773 715.148 292.541 714.845 292.541 Z " fill="rgb(255,0,0)"/><defs><filter id="hp1mvY3NUi7R3sRJkcTkh1gRJD5aPaa8" x="-200%" y="-200%" width="400%" height="400%" filterUnits="objectBoundingBox" color-interpolation-filters="sRGB"><feGaussianBlur xmlns="http://www.w3.org/2000/svg" stdDeviation="0"/></filter></defs><g filter="url(#hp1mvY3NUi7R3sRJkcTkh1gRJD5aPaa8)" style="mix-blend-mode:normal;" opacity="0.3"><path d="M 583.356 428.753 L 1007.056 428.753 C 1008.794 428.753 1010.206 430.164 1010.206 431.903 L 1010.206 495.603 C 1010.206 497.341 1008.794 498.753 1007.056 498.753 L 583.356 498.753 C 581.617 498.753 580.206 497.341 580.206 495.603 L 580.206 431.903 C 580.206 430.164 581.617 428.753 583.356 428.753 Z" style="stroke:none;fill:#EBEBEB;stroke-miterlimit:10;"/><path d="M 583.356 428.753 L 1007.056 428.753 C 1008.794 428.753 1010.206 430.164 1010.206 431.903 L 1010.206 495.603 C 1010.206 497.341 1008.794 498.753 1007.056 498.753 L 583.356 498.753 C 581.617 498.753 580.206 497.341 580.206 495.603 L 580.206 431.903 C 580.206 430.164 581.617 428.753 583.356 428.753 Z" style="fill:none;stroke:#CA5100;stroke-width:2;stroke-linecap:square;stroke-miterlimit:2;"/></g><defs><filter id="rSV3qsV1kayIfFPcMlaHT2Nlg8YHJXGv" x="-200%" y="-200%" width="400%" height="400%" filterUnits="objectBoundingBox" color-interpolation-filters="sRGB"><feGaussianBlur xmlns="http://www.w3.org/2000/svg" stdDeviation="0"/></filter></defs><g filter="url(#rSV3qsV1kayIfFPcMlaHT2Nlg8YHJXGv)" style="mix-blend-mode:normal;" opacity="0.3"><path d="M 583.356 526.753 L 1007.056 526.753 C 1008.794 526.753 1010.206 528.164 1010.206 529.903 L 1010.206 593.603 C 1010.206 595.341 1008.794 596.753 1007.056 596.753 L 583.356 596.753 C 581.617 596.753 580.206 595.341 580.206 593.603 L 580.206 529.903 C 580.206 528.164 581.617 526.753 583.356 526.753 Z" style="stroke:none;fill:#EBEBEB;stroke-miterlimit:10;"/><path d="M 583.356 526.753 L 1007.056 526.753 C 1008.794 526.753 1010.206 528.164 1010.206 529.903 L 1010.206 593.603 C 1010.206 595.341 1008.794 596.753 1007.056 596.753 L 583.356 596.753 C 581.617 596.753 580.206 595.341 580.206 593.603 L 580.206 529.903 C 580.206 528.164 581.617 526.753 583.356 526.753 Z" style="fill:none;stroke:#CA5100;stroke-width:2;stroke-linecap:square;stroke-miterlimit:2;"/></g><defs><filter id="VESdSMkGza1VUE0ZAT9XhxLqcKRqz3Ug" x="-200%" y="-200%" width="400%" height="400%" filterUnits="objectBoundingBox" color-interpolation-filters="sRGB"><feGaussianBlur xmlns="http://www.w3.org/2000/svg" stdDeviation="0"/></filter></defs><g filter="url(#VESdSMkGza1VUE0ZAT9XhxLqcKRqz3Ug)" style="mix-blend-mode:normal;" opacity="0.3"><path d="M 587.944 667.753 L 1011.644 667.753 C 1013.383 667.753 1014.794 669.164 1014.794 670.903 L 1014.794 734.603 C 1014.794 736.341 1013.383 737.753 1011.644 737.753 L 587.944 737.753 C 586.206 737.753 584.794 736.341 584.794 734.603 L 584.794 670.903 C 584.794 669.164 586.206 667.753 587.944 667.753 Z" style="stroke:none;fill:#FF0000;stroke-miterlimit:10;"/><path d="M 587.944 667.753 L 1011.644 667.753 C 1013.383 667.753 1014.794 669.164 1014.794 670.903 L 1014.794 734.603 C 1014.794 736.341 1013.383 737.753 1011.644 737.753 L 587.944 737.753 C 586.206 737.753 584.794 736.341 584.794 734.603 L 584.794 670.903 C 584.794 669.164 586.206 667.753 587.944 667.753 Z" style="fill:none;stroke:#470606;stroke-width:2;stroke-linecap:square;stroke-miterlimit:2;"/></g><text transform="matrix(1,0,0,1,580.206,642.786)" style="font-family:'Open Sans';font-weight:700;font-size:15px;font-style:normal;fill:#ff0000;stroke:none;">Esqueci minha senha</text><g style="mix-blend-mode:normal;" opacity="0.55"><text transform="matrix(1,0,0,1,767.158,710.512)" style="font-family:'Open Sans';font-weight:700;font-size:20px;font-style:normal;fill:#cacaca;stroke:none;">Entrar</text></g><g style="mix-blend-mode:normal;" opacity="0.55"><text transform="matrix(1,0,0,1,618.372,471.512)" style="font-family:'Open Sans';font-weight:700;font-size:20px;font-style:normal;fill:#cacaca;stroke:none;">E-mail</text></g><g style="mix-blend-mode:normal;" opacity="0.55"><text transform="matrix(1,0,0,1,614.122,566.259)" style="font-family:'Open Sans';font-weight:700;font-size:20px;font-style:normal;fill:#cacaca;stroke:none;">Senha</text></g><text transform="matrix(1,0,0,1,652.606,775.012)" style="font-family:'Open Sans';font-weight:400;font-size:20px;font-style:normal;fill:#ffffff;stroke:none;">Não tem uma conta? </text><text transform="matrix(1,0,0,1,851.199,775.012)" style="font-family:'Open Sans';font-weight:400;font-size:20px;font-style:normal;fill:#ff0000;stroke:none;">Registre-se</text><path d=" M 606.772 556.859 L 605.658 556.859 L 605.658 553.167 C 605.658 548.871 602.493 545.374 598.603 545.374 C 594.713 545.374 591.548 548.871 591.548 553.167 L 591.548 556.859 L 590.434 556.859 C 589.204 556.859 588.206 557.962 588.206 559.32 L 588.206 569.165 C 588.206 570.524 589.204 571.626 590.434 571.626 L 606.772 571.626 C 608.002 571.626 609 570.524 609 569.165 L 609 559.32 C 609 557.962 608.002 556.859 606.772 556.859 Z  M 601.945 556.859 L 595.261 556.859 L 595.261 553.167 C 595.261 551.132 596.76 549.476 598.603 549.476 C 600.446 549.476 601.945 551.132 601.945 553.167 L 601.945 556.859 Z " fill="rgb(67,30,6)"/><path d=" M 608.621 461.206 C 608.773 461.085 609 461.198 609 461.39 L 609 469.378 C 609 470.413 608.16 471.253 607.125 471.253 L 590.875 471.253 C 589.84 471.253 589 470.413 589 469.378 L 589 461.394 C 589 461.198 589.223 461.089 589.379 461.21 C 590.254 461.89 591.414 462.753 595.398 465.647 C 596.223 466.249 597.613 467.515 599 467.507 C 600.395 467.519 601.813 466.226 602.605 465.647 C 606.59 462.753 607.746 461.886 608.621 461.206 Z  M 599 466.253 C 599.906 466.269 601.211 465.112 601.867 464.636 C 607.051 460.874 607.445 460.546 608.641 459.608 C 608.867 459.433 609 459.159 609 458.87 L 609 458.128 C 609 457.093 608.16 456.253 607.125 456.253 L 590.875 456.253 C 589.84 456.253 589 457.093 589 458.128 L 589 458.87 C 589 459.159 589.133 459.429 589.359 459.608 C 590.555 460.542 590.949 460.874 596.133 464.636 C 596.789 465.112 598.094 466.269 599 466.253 Z " fill="rgb(67,30,6)"/><rect x="-0.577" y="1433" width="80.577" height="1027.8" transform="matrix(1,0,0,1,0,0)" fill="rgb(8,8,8)"/><rect x="2273" y="0.4" width="1507" height="1027.8" transform="matrix(1,0,0,1,0,0)" fill="rgb(8,8,8)"/><path d=" M 2749.296 614.495 L 2748.306 615.258 C 2747.886 615.581 2747.207 615.581 2746.792 615.258 L 2738.115 608.584 C 2737.695 608.261 2737.695 607.739 2738.115 607.42 L 2746.792 600.742 C 2747.212 600.419 2747.89 600.419 2748.306 600.742 L 2749.296 601.505 C 2749.721 601.831 2749.712 602.363 2749.279 602.683 L 2743.9 606.626 L 2756.729 606.626 C 2757.322 606.626 2757.8 606.994 2757.8 607.45 L 2757.8 608.55 C 2757.8 609.006 2757.322 609.374 2756.729 609.374 L 2743.9 609.374 L 2749.279 613.317 C 2749.716 613.637 2749.725 614.169 2749.296 614.495 Z " fill="rgb(243,0,0)"/><text transform="matrix(1.779,0,0,1.779,2861.432,355.48)" style="font-family:'Open Sans';font-weight:700;font-size:26px;font-style:normal;fill:#b3b3b3;stroke:none;">SM</text><text transform="matrix(1.779,0,0,1.779,2930.518,355.48)" style="font-family:'Open Sans';font-weight:700;font-size:26px;font-style:normal;fill:#d90101;stroke:none;">UH</text><polygon points="2818.771,363.285,2776.217,386.382,2733.7,363.227,2733.735,316.974,2776.288,293.877,2818.806,317.032" fill="rgb(244,10,10)"/><polygon points="2752.029,377.363,2730,339.062,2754.223,301.098,2800.476,301.434,2822.506,339.734,2798.282,377.699" fill="rgb(255,255,255)"/><path d=" M 2755.608 353.733 C 2758.863 353.733 2761.51 351.046 2761.51 347.742 C 2761.51 344.437 2758.863 341.75 2755.608 341.75 C 2752.353 341.75 2749.707 344.437 2749.707 347.742 C 2749.707 351.046 2752.353 353.733 2755.608 353.733 Z  M 2796.917 353.733 C 2800.172 353.733 2802.818 351.046 2802.818 347.742 C 2802.818 344.437 2800.172 341.75 2796.917 341.75 C 2793.662 341.75 2791.016 344.437 2791.016 347.742 C 2791.016 351.046 2793.662 353.733 2796.917 353.733 Z  M 2799.868 356.729 L 2793.967 356.729 C 2792.344 356.729 2790.878 357.394 2789.808 358.47 C 2793.524 360.539 2796.161 364.274 2796.733 368.712 L 2802.818 368.712 C 2804.451 368.712 2805.769 367.373 2805.769 365.716 L 2805.769 362.72 C 2805.769 359.416 2803.123 356.729 2799.868 356.729 Z  M 2776.263 356.729 C 2781.97 356.729 2786.59 352.039 2786.59 346.244 C 2786.59 340.449 2781.97 335.759 2776.263 335.759 C 2770.555 335.759 2765.936 340.449 2765.936 346.244 C 2765.936 352.039 2770.555 356.729 2776.263 356.729 Z  M 2783.344 359.725 L 2782.579 359.725 C 2780.661 360.661 2778.531 361.223 2776.263 361.223 C 2773.994 361.223 2771.874 360.661 2769.947 359.725 L 2769.181 359.725 C 2763.317 359.725 2758.559 364.555 2758.559 370.509 L 2758.559 373.205 C 2758.559 375.686 2760.541 377.699 2762.985 377.699 L 2789.541 377.699 C 2791.984 377.699 2793.967 375.686 2793.967 373.205 L 2793.967 370.509 C 2793.967 364.555 2789.209 359.725 2783.344 359.725 Z  M 2762.717 358.47 C 2761.648 357.394 2760.182 356.729 2758.559 356.729 L 2752.658 356.729 C 2749.403 356.729 2746.756 359.416 2746.756 362.72 L 2746.756 365.716 C 2746.756 367.373 2748.075 368.712 2749.707 368.712 L 2755.783 368.712 C 2756.364 364.274 2759.002 360.539 2762.717 358.47 Z " fill="rgb(255,0,0)"/><text transform="matrix(1,0,0,1,2765.034,612.786)" style="font-family:'Open Sans';font-weight:700;font-size:15px;font-style:normal;fill:#ff0000;stroke:none;">Voltar ao login</text><path d=" M 2769.818 317.088 C 2769.741 317.015 2769.636 316.974 2769.527 316.974 C 2769.418 316.974 2769.313 317.015 2769.236 317.088 L 2767.053 319.131 L 2766.276 318.417 C 2766.198 318.344 2766.094 318.303 2765.984 318.303 C 2765.875 318.303 2765.77 318.344 2765.693 318.417 L 2765.155 318.924 C 2765.078 318.997 2765.034 319.096 2765.034 319.199 C 2765.034 319.302 2765.078 319.4 2765.155 319.473 L 2766.786 321.003 C 2766.955 321.154 2767.22 321.154 2767.389 321.003 L 2767.923 320.499 L 2770.398 318.169 C 2770.558 318.018 2770.559 317.773 2770.401 317.62 L 2769.818 317.088 Z  M 2769.818 322.225 C 2769.741 322.152 2769.636 322.111 2769.527 322.111 C 2769.418 322.111 2769.313 322.152 2769.236 322.225 L 2767.053 324.281 L 2766.276 323.568 C 2766.198 323.495 2766.094 323.454 2765.984 323.454 C 2765.875 323.454 2765.77 323.495 2765.693 323.568 L 2765.155 324.074 C 2765.078 324.147 2765.034 324.246 2765.034 324.349 C 2765.034 324.452 2765.078 324.55 2765.155 324.623 L 2766.782 326.156 C 2766.951 326.307 2767.216 326.307 2767.385 326.156 L 2767.923 325.65 L 2770.397 323.319 C 2770.557 323.169 2770.558 322.925 2770.4 322.774 L 2769.818 322.225 Z  M 2767.227 327.818 C 2766.319 327.818 2765.562 328.512 2765.562 329.367 C 2765.562 330.222 2766.32 330.916 2767.227 330.916 C 2768.136 330.916 2768.872 330.222 2768.872 329.367 C 2768.872 328.511 2768.136 327.818 2767.227 327.818 Z  M 2782.031 328.334 L 2772.162 328.334 C 2771.859 328.334 2771.613 328.565 2771.613 328.85 L 2771.613 329.883 C 2771.613 330.168 2771.859 330.399 2772.162 330.399 L 2782.031 330.399 C 2782.333 330.399 2782.579 330.168 2782.579 329.883 L 2782.579 328.85 C 2782.579 328.565 2782.333 328.334 2782.031 328.334 Z  M 2782.031 318.008 L 2772.162 318.008 C 2771.859 318.008 2771.613 318.239 2771.613 318.524 L 2771.613 319.557 C 2771.613 319.842 2771.859 320.073 2772.162 320.073 L 2782.031 320.073 C 2782.333 320.073 2782.579 319.842 2782.579 319.557 L 2782.579 318.524 C 2782.579 318.239 2782.333 318.008 2782.031 318.008 Z  M 2782.031 323.171 L 2772.162 323.171 C 2771.859 323.171 2771.613 323.402 2771.613 323.687 L 2771.613 324.72 C 2771.613 325.005 2771.859 325.236 2772.162 325.236 L 2782.031 325.236 C 2782.333 325.236 2782.579 325.005 2782.579 324.72 L 2782.579 323.687 C 2782.579 323.402 2782.333 323.171 2782.031 323.171 Z " fill="rgb(255,0,0)"/><defs><filter id="0amJOIaPDoFOyPojr0cFNJCgtCf7DfeR" x="-200%" y="-200%" width="400%" height="400%" filterUnits="objectBoundingBox" color-interpolation-filters="sRGB"><feGaussianBlur xmlns="http://www.w3.org/2000/svg" stdDeviation="0"/></filter></defs><g filter="url(#0amJOIaPDoFOyPojr0cFNJCgtCf7DfeR)" style="mix-blend-mode:normal;" opacity="0.3"><path d="M 3209.15 409.074 L 3632.85 409.074 C 3634.589 409.074 3636 410.485 3636 412.224 L 3636 475.924 C 3636 477.662 3634.589 479.074 3632.85 479.074 L 3209.15 479.074 C 3207.411 479.074 3206 477.662 3206 475.924 L 3206 412.224 C 3206 410.485 3207.411 409.074 3209.15 409.074 Z" style="stroke:none;fill:#EBEBEB;stroke-miterlimit:10;"/><path d="M 3209.15 409.074 L 3632.85 409.074 C 3634.589 409.074 3636 410.485 3636 412.224 L 3636 475.924 C 3636 477.662 3634.589 479.074 3632.85 479.074 L 3209.15 479.074 C 3207.411 479.074 3206 477.662 3206 475.924 L 3206 412.224 C 3206 410.485 3207.411 409.074 3209.15 409.074 Z" style="fill:none;stroke:#CA5100;stroke-width:2;stroke-linecap:square;stroke-miterlimit:2;"/></g><defs><filter id="meTWzWBF0DZSSAQlamRmvLex0FaLwtpN" x="-200%" y="-200%" width="400%" height="400%" filterUnits="objectBoundingBox" color-interpolation-filters="sRGB"><feGaussianBlur xmlns="http://www.w3.org/2000/svg" stdDeviation="0"/></filter></defs><g filter="url(#meTWzWBF0DZSSAQlamRmvLex0FaLwtpN)" style="mix-blend-mode:normal;" opacity="0.3"><path d="M 3209.15 507.074 L 3632.85 507.074 C 3634.589 507.074 3636 508.485 3636 510.224 L 3636 573.924 C 3636 575.662 3634.589 577.074 3632.85 577.074 L 3209.15 577.074 C 3207.411 577.074 3206 575.662 3206 573.924 L 3206 510.224 C 3206 508.485 3207.411 507.074 3209.15 507.074 Z" style="stroke:none;fill:#EBEBEB;stroke-miterlimit:10;"/><path d="M 3209.15 507.074 L 3632.85 507.074 C 3634.589 507.074 3636 508.485 3636 510.224 L 3636 573.924 C 3636 575.662 3634.589 577.074 3632.85 577.074 L 3209.15 577.074 C 3207.411 577.074 3206 575.662 3206 573.924 L 3206 510.224 C 3206 508.485 3207.411 507.074 3209.15 507.074 Z" style="fill:none;stroke:#CA5100;stroke-width:2;stroke-linecap:square;stroke-miterlimit:2;"/></g><defs><filter id="6wLQQmsgbao3sWMuJrfssgTCit3ATkQY" x="-200%" y="-200%" width="400%" height="400%" filterUnits="objectBoundingBox" color-interpolation-filters="sRGB"><feGaussianBlur xmlns="http://www.w3.org/2000/svg" stdDeviation="0"/></filter></defs><g filter="url(#6wLQQmsgbao3sWMuJrfssgTCit3ATkQY)" style="mix-blend-mode:normal;" opacity="0.3"><path d="M 3213.738 305.129 L 3637.438 305.129 C 3639.177 305.129 3640.588 306.541 3640.588 308.279 L 3640.588 371.979 C 3640.588 373.718 3639.177 375.129 3637.438 375.129 L 3213.738 375.129 C 3212 375.129 3210.588 373.718 3210.588 371.979 L 3210.588 308.279 C 3210.588 306.541 3212 305.129 3213.738 305.129 Z" style="stroke:none;fill:#EBEBEB;stroke-miterlimit:10;"/><path d="M 3213.738 305.129 L 3637.438 305.129 C 3639.177 305.129 3640.588 306.541 3640.588 308.279 L 3640.588 371.979 C 3640.588 373.718 3639.177 375.129 3637.438 375.129 L 3213.738 375.129 C 3212 375.129 3210.588 373.718 3210.588 371.979 L 3210.588 308.279 C 3210.588 306.541 3212 305.129 3213.738 305.129 Z" style="fill:none;stroke:#CA5100;stroke-width:2;stroke-linecap:square;stroke-miterlimit:2;"/></g><defs><filter id="ARd6qfX2lQ32oQvXgsnZ8V2PGoYIldsg" x="-200%" y="-200%" width="400%" height="400%" filterUnits="objectBoundingBox" color-interpolation-filters="sRGB"><feGaussianBlur xmlns="http://www.w3.org/2000/svg" stdDeviation="0"/></filter></defs><g filter="url(#ARd6qfX2lQ32oQvXgsnZ8V2PGoYIldsg)" style="mix-blend-mode:normal;" opacity="0.3"><path d="M 3213.738 648.074 L 3637.438 648.074 C 3639.177 648.074 3640.588 649.485 3640.588 651.224 L 3640.588 714.924 C 3640.588 716.662 3639.177 718.074 3637.438 718.074 L 3213.738 718.074 C 3212 718.074 3210.588 716.662 3210.588 714.924 L 3210.588 651.224 C 3210.588 649.485 3212 648.074 3213.738 648.074 Z" style="stroke:none;fill:#FF0000;stroke-miterlimit:10;"/><path d="M 3213.738 648.074 L 3637.438 648.074 C 3639.177 648.074 3640.588 649.485 3640.588 651.224 L 3640.588 714.924 C 3640.588 716.662 3639.177 718.074 3637.438 718.074 L 3213.738 718.074 C 3212 718.074 3210.588 716.662 3210.588 714.924 L 3210.588 651.224 C 3210.588 649.485 3212 648.074 3213.738 648.074 Z" style="fill:none;stroke:#470606;stroke-width:2;stroke-linecap:square;stroke-miterlimit:2;"/></g><g style="mix-blend-mode:normal;" opacity="0.55"><text transform="matrix(1,0,0,1,3375.375,688.574)" style="font-family:'Open Sans';font-weight:700;font-size:20px;font-style:normal;fill:#cacaca;stroke:none;">Cadastrar</text></g><g style="mix-blend-mode:normal;" opacity="0.55"><text transform="matrix(1,0,0,1,3375.375,688.574)" style="font-family:'Open Sans';font-weight:700;font-size:20px;font-style:normal;fill:#cacaca;stroke:none;">Cadastrar</text></g><g style="mix-blend-mode:normal;" opacity="0.55"><text transform="matrix(1,0,0,1,2728.158,455.849)" style="font-family:'Open Sans';font-weight:700;font-size:40px;font-style:normal;fill:#FFFFFF;stroke:none;">Cadastro</text></g><g style="mix-blend-mode:normal;" opacity="0.55"><text transform="matrix(1,0,0,1,3244.166,451.832)" style="font-family:'Open Sans';font-weight:700;font-size:20px;font-style:normal;fill:#cacaca;stroke:none;">E-mail</text></g><g style="mix-blend-mode:normal;" opacity="0.55"><text transform="matrix(1,0,0,1,3244.166,347.888)" style="font-family:'Open Sans';font-weight:700;font-size:20px;font-style:normal;fill:#cacaca;stroke:none;">Nome</text></g><g style="mix-blend-mode:normal;" opacity="0.55"><text transform="matrix(1,0,0,1,3239.916,546.58)" style="font-family:'Open Sans';font-weight:700;font-size:20px;font-style:normal;fill:#cacaca;stroke:none;">Senha</text></g><path d=" M 3232.566 537.18 L 3231.452 537.18 L 3231.452 533.488 C 3231.452 529.191 3228.287 525.694 3224.397 525.694 C 3220.507 525.694 3217.342 529.191 3217.342 533.488 L 3217.342 537.18 L 3216.228 537.18 C 3214.998 537.18 3214 538.282 3214 539.641 L 3214 549.486 C 3214 550.845 3214.998 551.947 3216.228 551.947 L 3232.566 551.947 C 3233.796 551.947 3234.794 550.845 3234.794 549.486 L 3234.794 539.641 C 3234.794 538.282 3233.796 537.18 3232.566 537.18 Z  M 3227.739 537.18 L 3221.055 537.18 L 3221.055 533.488 C 3221.055 531.453 3222.554 529.796 3224.397 529.796 C 3226.24 529.796 3227.739 531.453 3227.739 533.488 L 3227.739 537.18 Z " fill="rgb(67,30,6)"/><path d=" M 3234.415 441.527 C 3234.568 441.406 3234.794 441.519 3234.794 441.71 L 3234.794 449.699 C 3234.794 450.734 3233.954 451.574 3232.919 451.574 L 3216.669 451.574 C 3215.634 451.574 3214.794 450.734 3214.794 449.699 L 3214.794 441.714 C 3214.794 441.519 3215.017 441.41 3215.173 441.531 C 3216.048 442.21 3217.208 443.074 3221.193 445.968 C 3222.017 446.57 3223.407 447.835 3224.794 447.828 C 3226.189 447.839 3227.607 446.546 3228.4 445.968 C 3232.384 443.074 3233.54 442.206 3234.415 441.527 Z  M 3224.794 446.574 C 3225.7 446.589 3227.005 445.433 3227.661 444.956 C 3232.845 441.195 3233.24 440.867 3234.435 439.929 C 3234.661 439.753 3234.794 439.48 3234.794 439.191 L 3234.794 438.449 C 3234.794 437.413 3233.954 436.574 3232.919 436.574 L 3216.669 436.574 C 3215.634 436.574 3214.794 437.413 3214.794 438.449 L 3214.794 439.191 C 3214.794 439.48 3214.927 439.749 3215.154 439.929 C 3216.349 440.863 3216.743 441.195 3221.927 444.956 C 3222.583 445.433 3223.888 446.589 3224.794 446.574 Z " fill="rgb(67,30,6)"/><line x1="1555.394" y1="484.253" x2="2273" y2="484.253" vector-effect="non-scaling-stroke" stroke-width="1" stroke="rgb(0,0,0)" stroke-linejoin="miter" stroke-linecap="square" stroke-miterlimit="3"/><text transform="matrix(1,0,0,1,2730,485.13)" style="font-family:'Open Sans';font-weight:400;font-size:20px;font-style:normal;fill:#ffffff;stroke:none;">Registre-se na plataforma para ter acesso </text><text transform="matrix(1,0,0,1,2730,512.366)" style="font-family:'Open Sans';font-weight:400;font-size:20px;font-style:normal;fill:#ffffff;stroke:none;">aos recursos do ambiente de sua </text><text transform="matrix(1,0,0,1,2730,539.602)" style="font-family:'Open Sans';font-weight:400;font-size:20px;font-style:normal;fill:#ffffff;stroke:none;">universidade</text><path d=" M 3228.916 340.129 C 3231.757 340.129 3234.059 338.451 3234.059 336.379 C 3234.059 334.308 3231.757 332.629 3228.916 332.629 C 3226.075 332.629 3223.773 334.308 3223.773 336.379 C 3223.773 338.451 3226.075 340.129 3228.916 340.129 Z  M 3232.516 341.067 L 3231.845 341.067 C 3230.953 341.366 3229.961 341.536 3228.916 341.536 C 3227.871 341.536 3226.883 341.366 3225.987 341.067 L 3225.316 341.067 C 3222.335 341.067 3219.916 342.831 3219.916 345.004 L 3219.916 346.223 C 3219.916 347 3220.78 347.629 3221.845 347.629 L 3228.916 347.629 L 3235.988 347.629 C 3237.052 347.629 3237.916 347 3237.916 346.223 L 3237.916 345.004 C 3237.916 342.831 3235.497 341.067 3232.516 341.067 Z " fill="rgb(67,30,6)"/><polygon points="61.008,1480.198,40.533,1492,20.075,1480.169,20.092,1456.536,40.567,1444.734,61.025,1456.565" fill="rgb(244,10,10)"/><polygon points="28.894,1487.392,18.295,1467.822,29.95,1448.424,52.206,1448.595,62.805,1468.165,51.15,1487.563" fill="rgb(255,255,255)"/><path d=" M 30.616 1475.318 C 32.183 1475.318 33.456 1473.945 33.456 1472.257 C 33.456 1470.568 32.183 1469.195 30.616 1469.195 C 29.05 1469.195 27.777 1470.568 27.777 1472.257 C 27.777 1473.945 29.05 1475.318 30.616 1475.318 Z  M 50.493 1475.318 C 52.059 1475.318 53.333 1473.945 53.333 1472.257 C 53.333 1470.568 52.059 1469.195 50.493 1469.195 C 48.927 1469.195 47.653 1470.568 47.653 1472.257 C 47.653 1473.945 48.927 1475.318 50.493 1475.318 Z  M 51.913 1476.849 L 49.073 1476.849 C 48.292 1476.849 47.587 1477.188 47.072 1477.738 C 48.86 1478.795 50.129 1480.704 50.404 1482.971 L 53.333 1482.971 C 54.118 1482.971 54.752 1482.287 54.752 1481.441 L 54.752 1479.91 C 54.752 1478.221 53.479 1476.849 51.913 1476.849 Z  M 40.555 1476.849 C 43.301 1476.849 45.524 1474.452 45.524 1471.491 C 45.524 1468.53 43.301 1466.134 40.555 1466.134 C 37.808 1466.134 35.586 1468.53 35.586 1471.491 C 35.586 1474.452 37.808 1476.849 40.555 1476.849 Z  M 43.962 1478.379 L 43.594 1478.379 C 42.671 1478.858 41.646 1479.145 40.555 1479.145 C 39.463 1479.145 38.443 1478.858 37.516 1478.379 L 37.147 1478.379 C 34.326 1478.379 32.036 1480.847 32.036 1483.89 L 32.036 1485.267 C 32.036 1486.535 32.99 1487.563 34.166 1487.563 L 46.944 1487.563 C 48.119 1487.563 49.073 1486.535 49.073 1485.267 L 49.073 1483.89 C 49.073 1480.847 46.784 1478.379 43.962 1478.379 Z  M 34.037 1477.738 C 33.523 1477.188 32.817 1476.849 32.036 1476.849 L 29.197 1476.849 C 27.631 1476.849 26.357 1478.221 26.357 1479.91 L 26.357 1481.441 C 26.357 1482.287 26.992 1482.971 27.777 1482.971 L 30.701 1482.971 C 30.98 1480.704 32.249 1478.795 34.037 1477.738 Z " fill="rgb(255,0,0)"/><path d=" M 37.454 1456.594 C 37.417 1456.557 37.366 1456.536 37.314 1456.536 C 37.261 1456.536 37.211 1456.557 37.173 1456.594 L 36.124 1457.638 L 35.749 1457.273 C 35.712 1457.236 35.662 1457.215 35.609 1457.215 C 35.556 1457.215 35.506 1457.236 35.469 1457.273 L 35.21 1457.532 C 35.173 1457.569 35.152 1457.62 35.152 1457.672 C 35.152 1457.725 35.173 1457.775 35.21 1457.813 L 35.995 1458.594 C 36.076 1458.671 36.204 1458.671 36.285 1458.594 L 36.542 1458.337 L 37.733 1457.146 C 37.81 1457.069 37.81 1456.944 37.734 1456.866 L 37.454 1456.594 Z  M 37.454 1459.219 C 37.417 1459.181 37.366 1459.161 37.314 1459.161 C 37.261 1459.161 37.211 1459.181 37.173 1459.219 L 36.124 1460.269 L 35.749 1459.905 C 35.712 1459.868 35.662 1459.847 35.609 1459.847 C 35.556 1459.847 35.506 1459.868 35.469 1459.905 L 35.21 1460.164 C 35.173 1460.201 35.152 1460.251 35.152 1460.304 C 35.152 1460.356 35.173 1460.407 35.21 1460.444 L 35.993 1461.227 C 36.074 1461.304 36.202 1461.304 36.283 1461.227 L 36.542 1460.968 L 37.732 1459.778 C 37.809 1459.701 37.81 1459.577 37.734 1459.499 L 37.454 1459.219 Z  M 36.207 1462.076 C 35.77 1462.076 35.406 1462.431 35.406 1462.868 C 35.406 1463.305 35.771 1463.659 36.207 1463.659 C 36.644 1463.659 36.999 1463.305 36.999 1462.868 C 36.999 1462.431 36.644 1462.076 36.207 1462.076 Z  M 43.33 1462.34 L 38.581 1462.34 C 38.436 1462.34 38.318 1462.458 38.318 1462.604 L 38.318 1463.132 C 38.318 1463.277 38.436 1463.395 38.581 1463.395 L 43.33 1463.395 C 43.476 1463.395 43.594 1463.277 43.594 1463.132 L 43.594 1462.604 C 43.594 1462.458 43.476 1462.34 43.33 1462.34 Z  M 43.33 1457.064 L 38.581 1457.064 C 38.436 1457.064 38.318 1457.182 38.318 1457.328 L 38.318 1457.855 C 38.318 1458.001 38.436 1458.119 38.581 1458.119 L 43.33 1458.119 C 43.476 1458.119 43.594 1458.001 43.594 1457.855 L 43.594 1457.328 C 43.594 1457.182 43.476 1457.064 43.33 1457.064 Z  M 43.33 1459.702 L 38.581 1459.702 C 38.436 1459.702 38.318 1459.82 38.318 1459.966 L 38.318 1460.493 C 38.318 1460.639 38.436 1460.757 38.581 1460.757 L 43.33 1460.757 C 43.476 1460.757 43.594 1460.639 43.594 1460.493 L 43.594 1459.966 C 43.594 1459.82 43.476 1459.702 43.33 1459.702 Z " fill="rgb(255,0,0)"/><path d=" M 54.49 1721.605 L 51.798 1720.117 C 52.07 1718.714 52.07 1717.274 51.798 1715.871 L 54.49 1714.383 C 54.799 1714.214 54.938 1713.863 54.837 1713.536 C 54.136 1711.383 52.942 1709.436 51.381 1707.815 C 51.141 1707.567 50.749 1707.506 50.446 1707.675 L 47.755 1709.163 C 46.624 1708.232 45.322 1707.512 43.913 1707.04 L 43.913 1704.071 C 43.913 1703.732 43.667 1703.436 43.319 1703.363 C 41 1702.867 38.625 1702.891 36.42 1703.363 C 36.072 1703.436 35.826 1703.732 35.826 1704.071 L 35.826 1707.046 C 34.423 1707.524 33.122 1708.244 31.984 1709.169 L 29.299 1707.681 C 28.99 1707.512 28.604 1707.567 28.364 1707.821 C 26.803 1709.436 25.609 1711.383 24.908 1713.542 C 24.801 1713.869 24.946 1714.22 25.256 1714.389 L 27.947 1715.877 C 27.675 1717.28 27.675 1718.72 27.947 1720.123 L 25.256 1721.611 C 24.946 1721.78 24.807 1722.131 24.908 1722.458 C 25.609 1724.611 26.803 1726.558 28.364 1728.179 C 28.604 1728.427 28.996 1728.488 29.299 1728.319 L 31.991 1726.831 C 33.122 1727.762 34.423 1728.482 35.832 1728.954 L 35.832 1731.929 C 35.832 1732.268 36.079 1732.564 36.426 1732.637 C 38.745 1733.133 41.12 1733.109 43.325 1732.637 C 43.673 1732.564 43.919 1732.268 43.919 1731.929 L 43.919 1728.954 C 45.322 1728.476 46.624 1727.756 47.761 1726.831 L 50.452 1728.319 C 50.762 1728.488 51.147 1728.433 51.387 1728.179 C 52.948 1726.564 54.142 1724.617 54.844 1722.458 C 54.938 1722.125 54.799 1721.774 54.49 1721.605 L 54.49 1721.605 Z  M 39.869 1722.833 C 37.083 1722.833 34.815 1720.661 34.815 1717.994 C 34.815 1715.327 37.083 1713.155 39.869 1713.155 C 42.656 1713.155 44.924 1715.327 44.924 1717.994 C 44.924 1720.661 42.656 1722.833 39.869 1722.833 Z " fill="rgb(235,235,235)"/><path d="M 28.207 1648 L 37.093 1648 C 38.09 1648 38.9 1648.81 38.9 1649.807 L 38.9 1658.693 C 38.9 1659.69 38.09 1660.5 37.093 1660.5 L 28.207 1660.5 C 27.21 1660.5 26.4 1659.69 26.4 1658.693 L 26.4 1649.807 C 26.4 1648.81 27.21 1648 28.207 1648 Z" style="stroke:none;fill:#EBEBEB;stroke-miterlimit:10;"/><path d="M 41.68 1648 L 50.566 1648 C 51.563 1648 52.373 1648.81 52.373 1649.807 L 52.373 1658.693 C 52.373 1659.69 51.563 1660.5 50.566 1660.5 L 41.68 1660.5 C 40.682 1660.5 39.873 1659.69 39.873 1658.693 L 39.873 1649.807 C 39.873 1648.81 40.682 1648 41.68 1648 Z" style="stroke:none;fill:#EBEBEB;stroke-miterlimit:10;"/><path d="M 28.18 1661.5 L 37.066 1661.5 C 38.063 1661.5 38.873 1662.31 38.873 1663.307 L 38.873 1672.193 C 38.873 1673.19 38.063 1674 37.066 1674 L 28.18 1674 C 27.182 1674 26.373 1673.19 26.373 1672.193 L 26.373 1663.307 C 26.373 1662.31 27.182 1661.5 28.18 1661.5 Z" style="stroke:none;fill:#EBEBEB;stroke-miterlimit:10;"/><path d="M 41.68 1661.5 L 50.566 1661.5 C 51.563 1661.5 52.373 1662.31 52.373 1663.307 L 52.373 1672.193 C 52.373 1673.19 51.563 1674 50.566 1674 L 41.68 1674 C 40.682 1674 39.873 1673.19 39.873 1672.193 L 39.873 1663.307 C 39.873 1662.31 40.682 1661.5 41.68 1661.5 Z" style="stroke:none;fill:#EBEBEB;stroke-miterlimit:10;"/><path d=" M 54.513 1760.903 L 42.513 1756.215 C 41.775 1755.928 40.945 1755.928 40.207 1756.215 L 28.207 1760.903 C 27.088 1761.337 26.357 1762.362 26.357 1763.499 C 26.357 1775.131 33.513 1783.171 40.201 1785.785 C 40.938 1786.072 41.77 1786.072 42.507 1785.785 C 47.863 1783.693 56.357 1776.467 56.357 1763.499 C 56.357 1762.362 55.626 1761.337 54.513 1760.903 Z  M 41.363 1782.151 L 41.357 1759.825 L 52.351 1764.12 C 52.145 1772.992 47.22 1779.421 41.363 1782.151 L 41.363 1782.151 Z " fill="rgb(235,235,235)"/><path d=" M 37.373 2419 C 29.089 2419 22.373 2425.719 22.373 2434 C 22.373 2442.286 29.089 2449 37.373 2449 C 45.657 2449 52.373 2442.286 52.373 2434 C 52.373 2425.719 45.657 2419 37.373 2419 Z  M 37.373 2446.097 C 30.687 2446.097 25.276 2440.688 25.276 2434 C 25.276 2427.317 30.688 2421.903 37.373 2421.903 C 44.056 2421.903 49.47 2427.315 49.47 2434 C 49.47 2440.685 44.061 2446.097 37.373 2446.097 Z  M 43.859 2430.661 C 43.859 2434.717 39.479 2434.779 39.479 2436.278 L 39.479 2436.661 C 39.479 2437.062 39.154 2437.387 38.753 2437.387 L 35.992 2437.387 C 35.592 2437.387 35.267 2437.062 35.267 2436.661 L 35.267 2436.138 C 35.267 2433.976 36.906 2433.111 38.144 2432.417 C 39.207 2431.821 39.857 2431.416 39.857 2430.628 C 39.857 2429.585 38.527 2428.892 37.451 2428.892 C 36.049 2428.892 35.401 2429.556 34.491 2430.705 C 34.246 2431.015 33.798 2431.072 33.483 2430.833 L 31.8 2429.557 C 31.491 2429.323 31.422 2428.888 31.64 2428.568 C 33.069 2426.469 34.889 2425.29 37.723 2425.29 C 40.691 2425.29 43.859 2427.607 43.859 2430.661 L 43.859 2430.661 Z  M 39.913 2440.774 C 39.913 2442.175 38.774 2443.315 37.373 2443.315 C 35.972 2443.315 34.833 2442.175 34.833 2440.774 C 34.833 2439.373 35.972 2438.234 37.373 2438.234 C 38.774 2438.234 39.913 2439.373 39.913 2440.774 Z " fill="rgb(235,235,235)"/><circle vector-effect="non-scaling-stroke" cx="37.3728764592765" cy="2392.875" r="14.999999999999998" fill="rgb(235,235,235)"/><path d=" M 37.373 2391 C 40.529 2391 43.087 2388.762 43.087 2386 C 43.087 2383.238 40.529 2381 37.373 2381 C 34.217 2381 31.659 2383.238 31.659 2386 C 31.659 2388.762 34.217 2391 37.373 2391 Z  M 41.373 2392.25 L 40.627 2392.25 C 39.636 2392.648 38.534 2392.875 37.373 2392.875 C 36.212 2392.875 35.114 2392.648 34.118 2392.25 L 33.373 2392.25 C 30.06 2392.25 27.373 2394.602 27.373 2397.5 L 27.373 2399.125 C 27.373 2400.16 28.333 2401 29.516 2401 L 45.23 2401 C 46.413 2401 47.373 2400.16 47.373 2399.125 L 47.373 2397.5 C 47.373 2394.602 44.685 2392.25 41.373 2392.25 Z " fill="rgb(0,0,0)"/></g></svg>